<?xml version="1.0" encoding="utf-8"?>
<!-- Generator: Adobe Adobe Illustrator 24.2.0, SVG Export Plug-In . SVG Version: 6.00 Build 0)  -->
<svg version="1.1" id="Calque_1" xmlns="http://www.w3.org/2000/svg" xmlns:xlink="http://www.w3.org/1999/xlink" x="0px" y="0px"
	 width="512px" height="512px" viewBox="0 0 512 512" style="enable-background:new 0 0 512 512;" xml:space="preserve">
<style type="text/css">
	.st0{clip-path:url(#SVGID_2_);}
	.st1{fill:#F4F4F4;}
	.st2{fill:none;stroke:#000000;stroke-width:8.2863;stroke-miterlimit:10;}
	.st3{fill:none;stroke:#000000;stroke-width:4.1578;stroke-linecap:round;stroke-linejoin:round;stroke-miterlimit:10;}
	.st4{clip-path:url(#SVGID_4_);}
	.st5{clip-path:url(#SVGID_6_);}
</style>
<g>
	<defs>
		<rect id="SVGID_1_" x="-101.38" y="-72.21" width="1033.76" height="668.9"/>
	</defs>
	<clipPath id="SVGID_2_">
		<use xlink:href="#SVGID_1_"  style="overflow:visible;"/>
	</clipPath>
	<g class="st0">
		<polygon class="st1" points="125.25,397.47 137.1,390.63 137.1,308.56 89.71,281.2 89.71,240.16 125.25,260.68 148.95,247 
			148.95,233.32 125.25,247 89.71,226.48 89.71,199.12 77.86,205.96 77.86,288.04 125.25,315.4 125.25,356.43 89.71,335.91 
			66.02,349.59 66.02,363.27 89.71,349.59 125.25,370.11 		"/>
		<polygon class="st1" points="255.57,308.56 220.03,329.08 220.03,356.44 231.87,363.27 231.87,335.91 267.41,315.4 279.26,322.23 
			291.11,329.08 291.11,315.4 220.03,274.36 172.64,301.72 137.1,281.2 172.64,260.68 172.64,233.32 160.79,226.48 160.79,253.84 
			125.25,274.36 101.56,260.68 101.56,274.36 172.64,315.4 220.03,288.04 		"/>
		<polygon class="st1" points="101.56,383.79 101.56,424.83 77.86,438.51 89.71,445.35 113.41,431.67 160.79,404.31 160.79,349.59 
			196.34,329.08 196.33,370.11 220.03,383.79 231.87,376.95 208.18,363.27 208.18,322.23 231.87,308.56 220.03,301.72 
			148.95,342.76 148.95,397.47 113.41,417.99 113.41,376.95 89.71,363.27 77.86,370.11 		"/>
		<polygon class="st1" points="148.95,315.4 148.95,329.08 160.79,322.23 		"/>
		<polygon class="st1" points="208.18,240.16 220.03,233.32 220.03,151.24 172.64,123.89 172.64,82.85 208.18,103.37 231.88,89.69 
			231.88,76.01 208.18,89.69 172.64,69.17 172.64,41.81 160.79,48.65 160.79,130.72 208.18,158.08 208.18,199.12 172.64,178.6 
			148.95,192.28 148.95,205.96 172.64,192.28 208.18,212.8 		"/>
		<polygon class="st1" points="208.18,117.05 184.49,103.37 184.49,117.05 255.57,158.08 302.96,130.72 338.5,151.24 302.96,171.77 
			302.96,199.12 314.8,205.96 314.8,178.6 350.34,158.08 362.19,164.92 374.04,171.77 374.04,158.08 302.96,117.05 255.57,144.4 
			220.03,123.89 255.57,103.37 255.57,76.01 243.72,69.17 243.72,96.53 		"/>
		<polygon class="st1" points="184.49,226.48 184.49,267.52 160.79,281.2 172.64,288.04 196.34,274.36 243.72,247 243.72,192.28 
			279.27,171.77 279.26,212.8 302.96,226.48 314.8,219.64 291.11,205.96 291.11,164.92 314.8,151.24 302.96,144.4 231.88,185.44 
			231.88,240.16 196.34,260.68 196.34,219.64 172.64,205.96 160.79,212.8 		"/>
		<polygon class="st1" points="243.72,164.92 231.88,158.08 231.88,171.77 		"/>
		<polygon class="st1" points="255.57,-88.15 255.57,-115.51 243.72,-108.67 243.72,-26.59 291.11,0.77 291.11,41.8 255.57,21.29 
			231.87,34.97 231.87,48.65 255.57,34.97 291.11,55.48 291.11,82.84 302.95,76.01 302.95,-6.07 255.57,-33.43 255.57,-74.47 
			291.11,-53.95 314.8,-67.63 314.8,-81.31 291.11,-67.63 		"/>
		<polygon class="st1" points="302.95,-33.43 338.49,-53.95 338.49,-81.31 326.65,-88.15 326.65,-60.79 291.11,-40.27 
			267.42,-53.95 267.42,-40.27 338.49,0.77 385.88,-26.59 421.43,-6.07 385.88,14.45 385.88,41.81 397.73,48.65 397.73,21.29 
			433.27,0.77 445.12,7.61 456.96,14.45 456.96,0.77 385.88,-40.27 338.49,-12.91 		"/>
		<polygon class="st1" points="255.57,48.65 243.72,55.48 267.42,69.16 267.42,110.2 243.72,123.88 255.57,130.72 279.26,117.04 
			326.65,89.68 326.65,34.97 362.19,14.45 362.19,55.48 385.88,69.16 397.73,62.33 374.04,48.65 374.04,7.61 397.73,-6.07 
			385.88,-12.91 314.8,28.13 314.8,82.84 279.26,103.36 279.26,62.33 		"/>
		<polygon class="st1" points="314.8,14.45 326.65,7.61 314.8,0.77 		"/>
		<polygon class="st1" points="433.27,-122.35 421.42,-115.51 421.42,-33.43 468.81,-6.07 468.81,34.97 433.27,14.45 409.58,28.13 
			409.58,41.81 433.27,28.13 468.81,48.65 468.81,76 480.66,69.17 480.66,-12.91 433.27,-40.27 433.27,-81.31 468.81,-60.79 
			492.51,-74.47 492.51,-88.15 468.81,-74.47 433.27,-94.99 		"/>
		<polygon class="st1" points="480.66,-40.27 516.2,-60.79 516.2,-88.15 504.35,-94.99 504.35,-67.63 468.81,-47.11 445.12,-60.79 
			445.12,-47.11 516.2,-6.07 563.59,-33.43 599.13,-12.91 563.59,7.61 563.59,34.97 575.43,41.81 575.43,14.45 610.97,-6.07 
			622.82,0.77 634.66,7.61 634.66,-6.07 563.59,-47.11 516.2,-19.75 		"/>
		<polygon class="st1" points="433.27,41.81 421.42,48.65 445.12,62.32 445.12,103.36 421.42,117.04 433.27,123.88 456.96,110.2 
			504.35,82.85 504.35,28.13 539.89,7.61 539.89,48.65 563.59,62.32 575.43,55.49 551.74,41.81 551.74,0.77 575.43,-12.91 
			563.59,-19.75 492.51,21.29 492.51,76 456.96,96.52 456.96,55.49 		"/>
		<polygon class="st1" points="492.51,7.61 504.35,0.77 492.51,-6.07 		"/>
		<polygon class="st1" points="30.48,247 42.32,240.16 42.32,158.09 -5.06,130.73 -5.06,89.69 30.48,110.21 54.17,96.53 
			54.17,82.85 30.48,96.53 -5.06,76.01 -5.06,48.65 -16.91,55.49 -16.91,137.57 30.48,164.93 30.48,205.96 -5.06,185.44 
			-28.76,199.12 -28.76,212.8 -5.06,199.12 30.48,219.64 		"/>
		<polygon class="st1" points="30.48,123.89 6.78,110.21 6.78,123.89 77.86,164.93 125.25,137.57 160.79,158.09 125.25,178.61 
			125.25,205.97 137.1,212.8 137.1,185.44 172.64,164.93 184.49,171.76 196.33,178.61 196.33,164.93 125.25,123.89 77.86,151.25 
			42.32,130.73 77.86,110.21 77.86,82.85 66.02,76.01 66.02,103.37 		"/>
		<polygon class="st1" points="6.78,233.32 6.78,274.36 -16.91,288.04 -5.06,294.88 18.63,281.2 66.02,253.84 66.02,199.12 
			101.56,178.61 101.56,219.64 125.25,233.32 137.1,226.48 113.41,212.8 113.41,171.76 137.1,158.09 125.25,151.25 54.17,192.29 
			54.17,247 18.63,267.52 18.63,226.48 -5.06,212.8 -16.91,219.64 		"/>
		<polygon class="st1" points="66.02,171.76 54.17,164.93 54.17,178.61 		"/>
		<polygon class="st1" points="-52.45,144.4 -16.91,164.92 -52.45,185.44 -52.45,212.8 -40.6,219.64 -40.6,192.28 -5.06,171.76 
			6.79,178.6 18.63,185.44 18.63,171.76 -52.45,130.72 -99.84,158.08 -135.37,137.56 -99.84,117.04 -99.84,89.68 -111.68,82.84 
			-111.68,110.2 -147.22,130.72 -170.92,117.04 -170.92,130.72 -99.84,171.76 		"/>
		<polygon class="st1" points="-64.3,-26.59 -87.99,-40.27 -87.99,-26.59 -16.91,14.45 30.48,-12.91 66.02,7.61 30.48,28.13 
			30.48,55.49 42.33,62.33 42.33,34.97 77.87,14.45 89.72,21.29 101.56,28.13 101.56,14.45 30.48,-26.59 -16.91,0.77 -52.45,-19.75 
			-16.91,-40.27 -16.91,-67.63 -28.75,-74.47 -28.75,-47.11 		"/>
		<polygon class="st1" points="-111.68,137.56 -99.83,144.4 -76.14,130.72 -28.75,103.36 -28.75,48.65 6.79,28.13 6.79,69.16 
			30.48,82.84 42.33,76.01 18.64,62.33 18.64,21.29 42.33,7.61 30.48,0.77 -40.6,41.81 -40.6,96.52 -76.14,117.04 -76.14,76.01 
			-99.83,62.33 -111.68,69.16 -87.99,82.84 -87.99,123.88 		"/>
		<polygon class="st1" points="77.87,315.4 42.33,335.92 42.33,363.27 54.17,370.11 54.17,342.75 89.72,322.24 101.56,329.07 
			113.41,335.92 113.41,322.24 42.33,281.2 -5.06,308.56 -40.6,288.04 -5.06,267.52 -5.06,240.16 -16.91,233.32 -16.91,260.68 
			-52.45,281.2 -76.14,267.52 -76.14,281.2 -5.06,322.24 42.33,294.88 		"/>
		<polygon class="st1" points="-99.84,445.35 -87.99,452.19 -64.29,438.51 -16.91,411.15 -16.91,356.43 18.64,335.92 18.63,376.95 
			42.33,390.63 54.17,383.79 30.48,370.11 30.48,329.07 54.17,315.39 42.33,308.56 -28.75,349.6 -28.75,404.31 -64.29,424.83 
			-64.29,383.79 -87.99,370.11 -99.84,376.95 -76.14,390.63 -76.14,431.67 		"/>
		<polygon class="st1" points="42.33,554.78 54.18,547.95 54.18,465.87 6.79,438.51 6.79,397.47 42.33,417.99 66.02,404.31 
			66.02,390.63 42.33,404.31 6.79,383.79 6.79,356.43 -5.06,363.27 -5.06,445.35 42.33,472.71 42.33,513.75 6.79,493.23 
			-16.91,506.91 -16.91,520.59 6.79,506.91 42.33,527.43 		"/>
		<polygon class="st1" points="42.33,431.67 18.64,417.99 18.64,431.67 89.71,472.71 137.1,445.35 172.64,465.87 137.1,486.39 
			137.1,513.75 148.95,520.59 148.95,493.23 184.49,472.71 196.34,479.55 208.18,486.39 208.18,472.71 137.1,431.67 89.71,459.03 
			54.18,438.51 89.71,417.99 89.71,390.63 77.87,383.79 77.87,411.15 		"/>
		<polygon class="st1" points="125.26,520.59 125.26,479.55 148.95,465.87 137.1,459.03 66.02,500.07 66.02,554.78 30.48,575.3 
			30.48,534.27 6.79,520.59 -5.06,527.43 18.64,541.1 18.64,582.14 -5.06,595.82 6.79,602.66 30.48,588.98 77.87,561.62 
			77.87,506.91 113.41,486.39 113.41,527.43 137.1,541.1 148.95,534.27 		"/>
		<polygon class="st1" points="77.87,479.55 66.02,472.71 66.02,486.39 		"/>
		<polygon class="st1" points="-135.38,438.51 -159.07,424.83 -159.07,438.51 -87.99,479.55 -40.6,452.19 -5.06,472.71 
			-40.6,493.23 -40.6,520.59 -28.76,527.43 -28.76,500.07 6.79,479.55 18.63,486.39 30.48,493.23 30.48,479.55 -40.6,438.51 
			-87.99,465.87 -123.53,445.35 -87.99,424.83 -87.99,397.47 -99.83,390.63 -99.83,417.99 		"/>
		<polygon class="st1" points="101.56,588.99 101.56,547.95 137.1,568.47 160.8,554.79 160.8,541.11 137.1,554.79 101.56,534.27 
			101.56,506.91 89.71,513.75 89.71,595.82 137.1,623.18 137.1,664.22 101.56,643.7 77.87,657.38 77.87,671.06 101.56,657.38 
			137.1,677.9 137.1,684.74 148.95,684.74 148.95,616.34 		"/>
		<polygon class="st1" points="113.41,89.68 125.25,82.85 125.25,0.77 77.87,-26.59 77.87,-67.63 113.41,-47.11 137.1,-60.79 
			137.1,-74.47 113.41,-60.79 77.87,-81.31 77.87,-108.67 66.02,-101.83 66.02,-19.75 113.41,7.61 113.41,48.64 77.87,28.13 
			54.17,41.81 54.17,55.49 77.87,41.81 113.41,62.32 		"/>
		<polygon class="st1" points="125.25,-26.59 160.79,-47.11 160.79,-74.47 148.95,-81.31 148.95,-53.95 113.41,-33.43 89.71,-47.11 
			89.71,-33.43 160.79,7.61 208.18,-19.75 243.72,0.77 208.18,21.29 208.18,48.65 220.03,55.49 220.03,28.13 255.57,7.61 
			267.42,14.45 279.26,21.29 279.26,7.61 208.18,-33.43 160.79,-6.07 		"/>
		<polygon class="st1" points="89.71,76 89.71,117.04 66.02,130.72 77.87,137.56 101.56,123.88 148.95,96.52 148.95,41.81 
			184.49,21.29 184.49,62.32 208.18,76 220.03,69.17 196.34,55.49 196.34,14.45 220.03,0.77 208.18,-6.07 137.1,34.97 137.1,89.68 
			101.56,110.2 101.56,69.17 77.87,55.49 66.02,62.32 		"/>
		<polygon class="st1" points="148.95,14.45 137.1,7.61 137.1,21.29 		"/>
		<polygon class="st1" points="385.88,233.32 397.73,226.48 397.73,144.4 350.34,117.05 350.34,76.01 385.88,96.53 409.58,82.85 
			409.58,69.17 385.88,82.85 350.34,62.33 350.34,34.97 338.49,41.81 338.49,123.88 385.88,151.24 385.88,192.28 350.34,171.76 
			326.65,185.44 326.65,199.12 350.34,185.44 385.88,205.96 		"/>
		<polygon class="st1" points="397.73,117.05 433.27,96.53 433.27,69.17 421.42,62.33 421.42,89.69 385.88,110.21 362.19,96.53 
			362.19,110.21 433.27,151.24 480.66,123.88 516.2,144.4 480.66,164.92 480.66,192.28 492.5,199.12 492.5,171.76 528.05,151.24 
			539.89,158.08 551.74,164.92 551.74,151.24 480.66,110.21 433.27,137.56 		"/>
		<polygon class="st1" points="362.19,219.64 362.19,260.68 338.49,274.36 350.34,281.2 374.04,267.52 421.43,240.16 421.43,185.44 
			456.97,164.92 456.96,205.96 480.66,219.64 492.5,212.8 468.81,199.12 468.81,158.08 492.5,144.4 480.66,137.56 409.58,178.6 
			409.58,233.32 374.04,253.84 374.04,212.8 350.34,199.12 338.49,205.96 		"/>
		<polygon class="st1" points="421.42,158.08 409.58,151.24 409.58,164.92 		"/>
		<polygon class="st1" points="302.96,390.63 314.8,383.79 314.8,301.72 267.42,274.36 267.42,233.32 302.96,253.84 326.65,240.16 
			326.65,226.48 302.96,240.16 267.42,219.64 267.42,192.28 255.57,199.12 255.57,281.2 302.96,308.56 302.96,349.59 267.42,329.07 
			243.72,342.75 243.72,356.43 267.42,342.75 302.96,363.27 		"/>
		<polygon class="st1" points="433.27,301.72 397.73,322.24 397.73,349.6 409.58,356.43 409.58,329.07 445.12,308.56 456.97,315.39 
			468.81,322.24 468.81,308.56 397.73,267.52 350.34,294.88 314.8,274.36 350.34,253.84 350.34,226.48 338.5,219.64 338.5,247 
			302.95,267.52 279.26,253.84 279.26,267.52 350.34,308.56 397.73,281.2 		"/>
		<polygon class="st1" points="279.26,417.99 255.57,431.67 267.42,438.51 291.11,424.83 338.5,397.47 338.5,342.75 374.04,322.24 
			374.04,363.27 397.73,376.95 409.58,370.11 385.88,356.43 385.88,315.39 409.58,301.72 397.73,294.88 326.65,335.92 
			326.65,390.63 291.11,411.15 291.11,370.11 267.42,356.43 255.57,363.27 279.26,376.95 		"/>
		<polygon class="st1" points="326.65,308.56 326.65,322.24 338.5,315.39 		"/>
		<polygon class="st1" points="445.12,185.44 433.27,192.28 433.27,274.36 480.66,301.72 480.66,342.75 445.12,322.24 
			421.42,335.91 421.42,349.6 445.12,335.91 480.66,356.43 480.66,383.79 492.5,376.96 492.5,294.88 445.12,267.52 445.12,226.48 
			480.66,247 504.35,233.32 504.35,219.64 480.66,233.32 445.12,212.8 		"/>
		<polygon class="st1" points="622.82,301.72 634.67,308.56 646.51,315.4 646.51,301.72 575.43,260.68 528.04,288.04 492.5,267.52 
			528.04,247 528.04,219.64 516.2,212.8 516.2,240.16 480.66,260.68 456.97,247 456.97,260.68 528.04,301.72 575.43,274.36 
			610.97,294.88 575.43,315.4 575.43,342.76 587.28,349.6 587.28,322.24 		"/>
		<polygon class="st1" points="575.43,370.11 587.28,363.28 563.59,349.6 563.59,308.56 587.28,294.88 575.43,288.04 504.35,329.08 
			504.35,383.79 468.81,404.31 468.81,363.28 445.12,349.6 433.27,356.43 456.97,370.11 456.97,411.15 433.27,424.83 445.12,431.67 
			468.81,417.99 516.2,390.63 516.2,335.91 551.74,315.4 551.74,356.43 		"/>
		<polygon class="st1" points="504.35,301.72 504.35,315.4 516.2,308.56 		"/>
		<polygon class="st1" points="456.96,575.31 456.96,534.27 492.5,554.79 516.2,541.11 516.2,527.43 492.5,541.11 456.96,520.59 
			456.96,493.23 445.11,500.07 445.11,582.15 492.5,609.51 492.5,650.55 456.96,630.03 433.27,643.71 433.27,657.39 456.96,643.71 
			492.5,664.23 492.5,684.74 504.35,684.74 504.35,602.67 		"/>
		<polygon class="st1" points="279.26,582.15 279.26,541.11 314.8,561.63 338.5,547.95 338.5,534.27 314.8,547.95 279.26,527.43 
			279.26,500.07 267.41,506.91 267.41,588.98 314.8,616.34 314.8,657.38 279.26,636.86 255.57,650.54 255.57,664.22 279.26,650.54 
			314.8,671.06 314.8,684.74 326.65,684.74 326.65,609.5 		"/>
		<polygon class="st1" points="563.59,144.4 563.59,185.44 528.05,164.92 504.35,178.6 504.35,192.28 528.05,178.6 563.59,199.12 
			563.59,226.48 575.43,219.64 575.43,137.56 528.05,110.21 528.05,69.17 563.59,89.69 587.28,76 587.28,62.33 563.59,76 
			528.05,55.49 528.05,28.13 516.2,34.97 516.2,117.04 		"/>
		<polygon class="st1" points="220.03,547.95 231.87,541.11 231.87,459.03 184.49,431.67 184.49,390.63 220.03,411.15 
			243.72,397.47 243.72,383.79 220.03,397.47 184.49,376.95 184.49,349.59 172.64,356.43 172.64,438.51 220.03,465.87 
			220.03,506.91 184.49,486.39 160.79,500.07 160.79,513.75 184.49,500.07 220.03,520.59 		"/>
		<polygon class="st1" points="350.34,459.03 314.8,479.55 314.8,506.91 326.65,513.75 326.65,486.39 362.19,465.87 374.04,472.71 
			385.88,479.55 385.88,465.87 314.8,424.83 267.41,452.19 231.87,431.67 267.41,411.15 267.41,383.79 255.57,376.95 255.57,404.31 
			220.03,424.83 196.34,411.15 196.34,424.83 267.41,465.87 314.8,438.51 		"/>
		<polygon class="st1" points="302.96,513.75 302.96,472.71 326.65,459.03 314.8,452.19 243.72,493.23 243.72,547.95 208.18,568.46 
			208.18,527.43 184.49,513.75 172.64,520.59 196.34,534.27 196.34,575.31 172.64,588.98 184.49,595.82 208.18,582.14 
			255.57,554.79 255.57,500.07 291.11,479.55 291.11,520.59 314.8,534.27 326.65,527.43 		"/>
		<polygon class="st1" points="243.72,465.87 243.72,479.55 255.57,472.71 		"/>
		<polygon class="st1" points="397.73,541.11 409.58,534.27 409.58,452.19 362.19,424.83 362.19,383.79 397.73,404.31 
			421.43,390.63 421.43,376.95 397.73,390.63 362.19,370.11 362.19,342.76 350.34,349.6 350.34,431.67 397.73,459.03 397.73,500.07 
			362.19,479.55 338.5,493.23 338.5,506.91 362.19,493.23 397.73,513.75 		"/>
		<polygon class="st1" points="528.05,452.19 492.51,472.71 492.51,500.07 504.35,506.91 504.35,479.55 539.89,459.03 
			551.74,465.87 563.59,472.71 563.59,459.03 492.51,417.99 445.12,445.35 409.58,424.83 445.12,404.31 445.12,376.95 
			433.27,370.11 433.27,397.47 397.73,417.99 374.04,404.31 374.04,417.99 445.12,459.03 492.51,431.67 		"/>
		<polygon class="st1" points="480.66,506.91 480.66,465.87 504.35,452.19 492.51,445.35 421.43,486.39 421.43,541.11 
			385.88,561.63 385.88,520.59 362.19,506.91 350.34,513.75 374.04,527.43 374.04,568.47 350.34,582.15 362.19,588.99 
			385.88,575.31 433.27,547.95 433.27,493.23 468.81,472.71 468.81,513.75 492.51,527.43 504.35,520.59 		"/>
		<polygon class="st1" points="421.43,459.03 421.43,472.71 433.27,465.87 		"/>
		<polygon class="st1" points="66.02,281.2 66.02,267.52 54.17,274.36 		"/>
		<polygon class="st1" points="160.79,431.67 160.79,417.99 148.94,424.84 		"/>
		<polygon class="st1" points="148.95,123.88 148.95,110.2 137.1,117.05 		"/>
		<polygon class="st1" points="243.72,274.36 243.72,260.68 231.88,267.52 		"/>
		<polygon class="st1" points="421.42,267.52 421.42,253.84 409.58,260.68 		"/>
		<polygon class="st1" points="504.35,110.2 504.35,96.52 492.5,103.37 		"/>
		<polygon class="st1" points="516.2,404.31 504.35,411.16 516.2,417.99 		"/>
		<polygon class="st1" points="326.65,117.04 326.65,103.36 314.8,110.21 		"/>
		<polygon class="st1" points="338.49,411.15 326.65,418 338.49,424.83 		"/>
	</g>
</g>
<g>
	<g>
		<path class="st2" d="M256,107.01c83.32,0,150.87,66.71,150.87,148.99"/>
		<path class="st2" d="M105.13,256c0-82.29,67.55-148.99,150.87-148.99"/>
	</g>
	<g>
		<path class="st3" d="M89.78,284.4l-23.89,16.67l-0.15-0.88l3.91-2.73l-3.41-19.55l-4.6-1.24l-0.15-0.88l28.13,7.6L89.78,284.4z
			 M70.37,296.95l18.51-12.91l-21.78-5.88L70.37,296.95z"/>
		<path class="st3" d="M98.25,315.61l-0.76,0.25l-2.5-7.6l-24.32,7.99l-0.25-0.76l24.32-7.99l-2.5-7.6l0.76-0.25L98.25,315.61z"/>
		<path class="st3" d="M101.98,324.35l6.81,13.59l-0.72,0.36l-6.45-12.87l-10.73,5.38l5.02,10.01l-0.72,0.36l-5.02-10.01
			l-10.73,5.38l6.45,12.88l-0.72,0.36l-6.81-13.59L101.98,324.35z"/>
		<path class="st3" d="M114.69,347.39l0.46,0.65l-20.93,14.75l8.3,11.77l-0.65,0.46l-8.76-12.43L114.69,347.39z"/>
		<path class="st3" d="M130.03,367.21l-19.73,17.54l-0.53-0.6l19.73-17.54L130.03,367.21z"/>
		<path class="st3" d="M138.99,376.69l11.38,10.08l-0.53,0.6l-10.78-9.55l-7.96,8.98l8.38,7.43l-0.53,0.6l-8.38-7.43l-7.96,8.98
			l10.78,9.55l-0.53,0.6l-11.38-10.08L138.99,376.69z"/>
		<path class="st3" d="M159.06,393.36l8.14,5.08c2.24,1.4,3.66,3.4,4.26,5.98c0.6,2.59,0.2,5-1.2,7.25
			c-1.4,2.24-3.39,3.66-5.98,4.26c-1.21,0.28-2.38,0.34-3.51,0.18l-0.33,9.23l-0.81-0.51l0.32-8.85c-1-0.25-1.97-0.67-2.91-1.25
			l-7.47-4.66l-3.81,6.11l-0.68-0.42L159.06,393.36z M159.32,394.46L150,409.39l7.47,4.66c2.06,1.29,4.28,1.66,6.64,1.11
			c2.37-0.55,4.19-1.86,5.48-3.92c1.29-2.06,1.66-4.28,1.11-6.64c-0.55-2.37-1.85-4.19-3.92-5.48L159.32,394.46z"/>
		<path class="st3" d="M217.19,419.49l-0.22,0.77l-7.68-2.24l-7.15,24.58l-0.77-0.22l7.15-24.58l-7.68-2.24l0.22-0.77L217.19,419.49
			z"/>
		<path class="st3" d="M245.69,427.1c2.39,3.03,3.36,6.47,2.9,10.3c-0.46,3.86-2.2,6.98-5.24,9.37c-3.03,2.39-6.47,3.36-10.3,2.9
			c-3.86-0.45-6.98-2.2-9.37-5.23c-2.39-3.03-3.36-6.48-2.9-10.33c0.45-3.83,2.2-6.95,5.23-9.34c3.03-2.39,6.48-3.36,10.33-2.9
			C240.19,422.32,243.3,424.06,245.69,427.1z M236.26,422.66c-3.62-0.43-6.87,0.49-9.74,2.75c-2.87,2.26-4.51,5.19-4.94,8.79
			c-0.43,3.62,0.49,6.87,2.75,9.74c2.26,2.87,5.2,4.51,8.82,4.94c3.6,0.43,6.84-0.49,9.7-2.75c2.87-2.26,4.51-5.2,4.94-8.82
			c0.43-3.6-0.49-6.84-2.75-9.7C242.79,424.73,239.86,423.09,236.26,422.66z"/>
		<path class="st3" d="M261.23,440.05l-1.33-15.95l0.8-0.06l1.32,15.95c0.22,2.64,1.34,4.81,3.37,6.53
			c2.03,1.71,4.36,2.46,6.99,2.24c2.64-0.22,4.81-1.34,6.53-3.37c1.72-2.02,2.46-4.36,2.25-6.99l-1.32-15.95l0.8-0.07l1.33,15.95
			c0.24,2.87-0.57,5.4-2.42,7.59c-1.85,2.19-4.21,3.4-7.08,3.64c-2.87,0.24-5.4-0.57-7.59-2.42
			C262.68,445.28,261.47,442.92,261.23,440.05z"/>
		<path class="st3" d="M291.96,420.29l9.27-2.51c2.55-0.69,4.98-0.38,7.28,0.94c2.3,1.32,3.8,3.26,4.49,5.81
			c0.69,2.55,0.38,4.98-0.94,7.28c-0.62,1.07-1.37,1.97-2.25,2.7l6.54,6.52l-0.93,0.25l-6.27-6.26c-0.86,0.57-1.83,0.99-2.9,1.28
			l-8.49,2.3l1.88,6.95l-0.77,0.21L291.96,420.29z M292.94,420.86l4.6,16.99l8.49-2.3c2.35-0.64,4.12-2.01,5.33-4.12
			c1.21-2.11,1.49-4.33,0.86-6.68c-0.64-2.35-2.01-4.12-4.12-5.33c-2.11-1.21-4.33-1.5-6.68-0.86L292.94,420.86z"/>
		<path class="st3" d="M347.64,397.11l24.59,15.63l-0.75,0.48l-4.02-2.56l-16.73,10.67l0.62,4.73l-0.76,0.48l-3.81-28.88
			L347.64,397.11z M366.69,410.2l-19.04-12.11l2.96,22.37L366.69,410.2z"/>
		<path class="st3" d="M388.57,360.5l0.6,0.53l-5.3,5.99l19.17,16.97l-0.53,0.6l-19.17-16.97l-5.3,5.99l-0.6-0.53L388.57,360.5z"/>
		<path class="st3" d="M407.67,338.01c3.77-0.86,7.28-0.25,10.55,1.8c3.29,2.07,5.36,4.99,6.21,8.75c0.86,3.77,0.25,7.28-1.8,10.55
			c-2.07,3.28-4.99,5.36-8.75,6.21c-3.77,0.86-7.29,0.25-10.58-1.82c-3.27-2.06-5.33-4.97-6.19-8.73
			c-0.86-3.77-0.25-7.29,1.82-10.58C400.99,340.93,403.9,338.87,407.67,338.01z M399.61,344.62c-1.94,3.09-2.51,6.41-1.7,9.97
			c0.81,3.56,2.75,6.31,5.82,8.24c3.09,1.94,6.41,2.51,9.97,1.7c3.56-0.81,6.31-2.76,8.26-5.85c1.93-3.07,2.49-6.38,1.68-9.94
			c-0.81-3.56-2.76-6.31-5.85-8.26c-3.07-1.93-6.39-2.49-9.94-1.68C404.29,339.62,401.55,341.55,399.61,344.62z"/>
		<path class="st3" d="M426.07,329.52l-14.97-5.64l0.28-0.75l14.97,5.64c2.48,0.93,4.92,0.85,7.34-0.24c2.42-1.1,4.1-2.88,5.03-5.36
			c0.93-2.47,0.85-4.92-0.24-7.34c-1.1-2.42-2.88-4.09-5.36-5.03l-14.97-5.64l0.28-0.75l14.97,5.64c2.7,1.02,4.63,2.83,5.82,5.44
			c1.18,2.61,1.27,5.27,0.25,7.96c-1.02,2.7-2.83,4.64-5.44,5.82C431.41,330.46,428.76,330.54,426.07,329.52z"/>
		<path class="st3" d="M421.36,293.3l1.67-9.45c0.46-2.6,1.78-4.67,3.96-6.19c2.18-1.52,4.57-2.05,7.17-1.59
			c2.6,0.46,4.67,1.78,6.19,3.96c0.71,1.01,1.2,2.08,1.48,3.19l8.68-3.14l-0.17,0.95l-8.33,3.01c0.14,1.02,0.12,2.08-0.08,3.17
			l-1.53,8.67l7.09,1.26l-0.14,0.79L421.36,293.3z M422.29,292.65l17.33,3.07l1.54-8.67c0.42-2.4-0.06-4.59-1.45-6.58
			s-3.28-3.2-5.68-3.62c-2.39-0.42-4.59,0.06-6.58,1.45c-1.99,1.39-3.2,3.28-3.62,5.68L422.29,292.65z"/>
	</g>
	<g>
		<defs>
			<path id="SVGID_5_" d="M256,92.96c91.18,0,165.1,73,165.1,163.04H453c0-108.7-88.2-196.81-197-196.81
				C147.2,59.19,59,147.3,59,256h31.9C90.9,165.95,164.82,92.96,256,92.96z"/>
		</defs>
		<clipPath id="SVGID_4_">
			<use xlink:href="#SVGID_5_"  style="overflow:visible;"/>
		</clipPath>
		<g class="st4">
			<polygon points="326.16,388.31 323.04,382.91 285.62,382.91 273.15,404.52 254.44,404.52 263.8,388.31 257.56,377.51 
				251.32,377.51 257.56,388.31 248.21,404.52 235.73,404.52 238.85,409.92 276.27,409.92 288.74,388.31 307.45,388.31 
				298.09,404.52 304.33,415.32 310.57,415.32 304.33,404.52 313.68,388.31 			"/>
			<polygon points="285.62,328.91 294.98,345.11 307.45,345.11 310.57,339.71 298.09,339.71 288.74,323.51 291.86,318.11 
				294.98,312.71 288.74,312.71 270.03,345.11 282.5,366.71 273.15,382.91 263.8,366.71 251.32,366.71 248.21,372.11 260.68,372.11 
				270.03,388.31 263.8,399.11 270.03,399.11 288.74,366.71 276.27,345.11 			"/>
			<polygon points="319.92,399.11 338.63,399.11 344.86,409.92 347.98,404.52 341.74,393.71 329.27,372.11 304.33,372.11 
				294.98,355.91 313.68,355.91 319.92,345.11 316.8,339.71 310.57,350.51 291.86,350.51 285.62,339.71 282.5,345.11 301.21,377.51 
				326.16,377.51 335.51,393.71 316.8,393.71 310.57,404.52 313.68,409.92 			"/>
			<polygon points="288.74,377.51 294.98,377.51 291.86,372.11 			"/>
			<polygon points="254.44,350.51 251.32,345.11 213.91,345.11 201.44,366.71 182.73,366.71 192.08,350.51 185.85,339.71 
				179.61,339.71 185.85,350.51 176.49,366.71 164.02,366.71 167.14,372.11 204.55,372.11 217.03,350.51 235.73,350.51 
				226.38,366.71 232.62,377.51 238.85,377.51 232.62,366.71 241.97,350.51 			"/>
			<polygon points="198.32,350.51 192.08,361.31 198.32,361.31 217.03,328.91 204.55,307.3 213.91,291.1 223.26,307.3 235.73,307.3 
				238.85,301.9 226.38,301.9 217.03,285.7 220.14,280.3 223.26,274.9 217.03,274.9 198.32,307.3 210.79,328.91 201.44,345.11 
				192.08,328.91 179.61,328.91 176.49,334.31 188.96,334.31 			"/>
			<polygon points="248.21,361.31 266.91,361.31 273.15,372.11 276.27,366.71 270.03,355.91 257.56,334.31 232.62,334.31 
				223.26,318.1 241.97,318.11 248.21,307.3 245.09,301.9 238.85,312.7 220.14,312.7 213.91,301.9 210.79,307.3 229.5,339.71 
				254.44,339.71 263.8,355.91 245.09,355.91 238.85,366.71 241.97,372.11 			"/>
			<polygon points="220.14,334.31 217.03,339.71 223.26,339.71 			"/>
			<polygon points="104.78,328.91 92.31,328.91 95.42,334.31 132.84,334.31 145.31,312.71 164.02,312.71 154.67,328.91 
				160.9,339.71 167.14,339.71 160.9,328.91 170.25,312.71 182.73,312.71 179.61,307.31 142.19,307.31 129.72,328.91 111.01,328.91 
				120.37,312.71 114.13,301.9 107.9,301.9 114.13,312.71 			"/>
			<polygon points="129.72,307.31 120.37,291.1 107.9,291.1 104.78,296.5 117.25,296.5 126.6,312.71 120.37,323.51 126.6,323.51 
				145.31,291.1 132.84,269.5 142.19,253.3 151.55,269.5 164.02,269.5 167.14,264.1 154.67,264.1 145.31,247.9 148.43,242.5 
				151.55,237.1 145.31,237.1 126.6,269.5 139.08,291.1 			"/>
			<polygon points="167.14,328.91 170.25,334.31 176.49,323.51 195.2,323.51 201.43,334.31 204.55,328.91 198.32,318.11 
				185.85,296.5 160.9,296.5 151.55,280.3 170.25,280.3 176.49,269.5 173.37,264.1 167.14,274.9 148.43,274.9 142.19,264.1 
				139.08,269.5 157.78,301.9 182.73,301.9 192.08,318.11 173.37,318.11 			"/>
			<polygon points="151.55,301.9 148.43,296.5 145.31,301.9 			"/>
			<polygon points="89.19,247.9 92.31,253.3 129.72,253.3 142.19,231.7 160.9,231.7 151.55,247.9 157.78,258.7 164.02,258.7 
				157.78,247.9 167.14,231.7 179.61,231.7 176.49,226.3 139.08,226.3 126.6,247.9 107.9,247.9 117.25,231.7 111.01,220.9 
				104.78,220.9 111.01,231.7 101.66,247.9 			"/>
			<polygon points="126.6,226.3 117.25,210.1 104.78,210.1 101.66,215.5 114.13,215.5 123.49,231.7 117.25,242.5 123.49,242.5 
				142.19,210.1 129.72,188.49 139.08,172.29 148.43,188.49 160.9,188.49 164.02,183.09 151.55,183.09 142.19,166.89 145.31,161.49 
				148.43,156.09 142.19,156.09 123.49,188.49 135.96,210.1 			"/>
			<polygon points="164.02,247.9 167.14,253.3 173.37,242.5 192.08,242.5 198.32,253.3 201.44,247.9 195.2,237.1 182.73,215.5 
				157.78,215.5 148.43,199.29 167.14,199.29 173.37,188.49 170.26,183.09 164.02,193.89 145.31,193.89 139.08,183.09 
				135.96,188.49 154.67,220.9 179.61,220.9 188.96,237.1 170.26,237.1 			"/>
			<polygon points="148.43,220.9 145.31,215.5 142.19,220.9 			"/>
			<polygon points="86.07,166.89 89.19,172.29 126.6,172.29 139.08,150.69 157.78,150.69 148.43,166.89 154.67,177.69 160.9,177.69 
				154.67,166.89 164.02,150.69 176.49,150.69 173.37,145.29 135.96,145.29 123.49,166.89 104.78,166.89 114.13,150.69 
				107.9,139.89 101.66,139.89 107.9,150.69 98.54,166.89 			"/>
			<polygon points="123.49,145.29 114.13,129.09 101.66,129.09 98.54,134.49 111.01,134.49 120.37,150.69 114.13,161.49 
				120.37,161.49 139.08,129.09 126.6,107.48 135.96,91.28 145.31,107.48 157.78,107.48 160.9,102.08 148.43,102.08 139.08,85.88 
				142.19,80.48 145.31,75.08 139.08,75.08 120.37,107.48 132.84,129.09 			"/>
			<polygon points="142.19,112.88 135.96,102.08 132.84,107.48 151.55,139.89 176.49,139.89 185.85,156.09 167.14,156.09 
				160.9,166.89 164.02,172.29 170.26,161.49 188.96,161.49 195.2,172.29 198.32,166.89 192.08,156.09 179.61,134.49 154.67,134.49 
				145.31,118.28 164.02,118.29 170.26,107.48 167.14,102.08 160.9,112.89 			"/>
			<polygon points="145.31,139.89 142.19,134.49 139.08,139.89 			"/>
			<polygon points="70.48,193.89 89.19,193.89 79.83,210.1 86.07,220.9 92.31,220.9 86.07,210.1 95.42,193.89 107.9,193.89 
				104.78,188.49 67.36,188.49 54.89,210.1 54.89,210.1 54.89,215.5 58.01,215.5 			"/>
			<polygon points="58.01,150.69 67.36,134.49 76.72,150.69 89.19,150.69 92.31,145.29 79.83,145.29 70.48,129.09 73.6,123.69 
				76.72,118.29 70.48,118.29 54.89,145.29 54.89,156.09 64.24,172.29 54.89,188.49 54.89,188.49 54.89,199.29 70.48,172.29 			"/>
			<polygon points="120.37,204.69 126.6,215.5 129.72,210.1 123.48,199.29 111.01,177.69 86.07,177.69 76.72,161.49 95.42,161.49 
				101.66,150.69 98.54,145.29 92.31,156.09 73.6,156.09 67.36,145.29 64.24,150.69 82.95,183.09 107.9,183.09 117.25,199.29 
				98.54,199.29 92.31,210.1 95.42,215.5 101.66,204.69 			"/>
			<polygon points="70.48,183.09 76.72,183.09 73.6,177.69 			"/>
			<polygon points="73.6,274.9 92.31,274.9 82.95,291.1 89.19,301.91 95.42,301.91 89.19,291.1 98.54,274.9 111.01,274.9 
				107.9,269.5 70.48,269.5 58.01,291.1 54.89,291.1 54.89,296.51 61.13,296.51 			"/>
			<polygon points="73.6,253.3 61.13,231.7 70.48,215.49 79.84,231.7 92.31,231.7 95.42,226.3 82.95,226.3 73.6,210.1 76.72,204.69 
				79.84,199.29 73.6,199.29 54.89,231.7 67.36,253.3 58.01,269.5 54.89,264.1 54.89,274.9 54.89,274.9 54.89,274.91 54.89,285.7 
				54.89,285.7 			"/>
			<polygon points="123.49,285.7 129.72,296.51 132.84,291.1 126.6,280.3 114.13,258.7 89.19,258.7 79.84,242.5 98.54,242.5 
				104.78,231.7 101.66,226.3 95.42,237.1 76.72,237.1 70.48,226.3 67.36,231.7 86.07,264.1 111.01,264.1 120.37,280.3 
				101.66,280.3 95.42,291.1 98.54,296.51 104.78,285.7 			"/>
			<polygon points="73.6,264.1 79.84,264.1 76.72,258.7 			"/>
			<polygon points="76.72,355.91 95.43,355.91 86.07,372.11 92.31,382.91 98.54,382.91 92.31,372.11 101.66,355.91 114.13,355.91 
				111.02,350.51 73.6,350.51 61.13,372.11 54.89,372.11 54.89,377.51 64.25,377.51 			"/>
			<polygon points="76.72,334.31 64.25,312.7 73.6,296.5 82.95,312.7 95.43,312.7 98.54,307.3 86.07,307.3 76.72,291.1 79.84,285.7 
				82.95,280.3 76.72,280.3 58.01,312.7 70.48,334.31 61.13,350.51 54.89,339.7 54.89,350.51 58.01,355.91 54.89,361.31 
				54.89,366.71 58.01,366.71 			"/>
			<polygon points="126.61,366.71 132.84,377.51 135.96,372.11 129.72,361.31 117.25,339.71 92.31,339.71 82.95,323.51 
				101.66,323.51 107.9,312.7 104.78,307.3 98.54,318.1 79.84,318.1 73.6,307.3 70.48,312.7 89.19,345.11 114.13,345.11 
				123.49,361.31 104.78,361.31 98.54,372.11 101.66,377.51 107.9,366.71 			"/>
			<polygon points="76.72,345.11 82.95,345.11 79.84,339.71 			"/>
			<polygon points="257.56,431.52 254.44,426.12 217.03,426.12 204.56,447.72 185.85,447.72 195.2,431.52 188.97,420.72 
				182.73,420.72 188.97,431.52 179.61,447.72 167.14,447.72 170.26,453.12 207.67,453.12 220.15,431.52 238.85,431.52 
				229.5,447.72 235.73,458.52 241.97,458.52 235.73,447.72 245.09,431.52 			"/>
			<polygon points="201.44,431.52 195.2,442.32 201.44,442.32 220.15,409.92 207.67,388.31 217.03,372.11 226.38,388.31 
				238.85,388.31 241.97,382.91 229.5,382.91 220.15,366.71 223.26,361.31 226.38,355.91 220.15,355.91 201.44,388.31 
				213.91,409.92 204.56,426.12 195.2,409.92 182.73,409.92 179.61,415.32 192.08,415.32 			"/>
			<polygon points="251.32,442.32 270.03,442.32 276.27,453.12 279.39,447.72 273.15,436.92 260.68,415.32 235.73,415.32 
				226.38,399.11 245.09,399.12 251.32,388.31 248.21,382.91 241.97,393.71 223.26,393.71 217.03,382.91 213.91,388.31 
				232.62,420.72 257.56,420.72 266.91,436.92 248.21,436.92 241.97,447.72 245.09,453.12 			"/>
			<polygon points="223.26,415.32 220.15,420.72 226.38,420.72 			"/>
			<polygon points="248.2,512.53 260.68,512.53 257.56,507.13 220.14,507.13 207.67,528.73 188.96,528.73 198.32,512.53 
				192.08,501.72 185.85,501.72 192.08,512.53 182.73,528.73 170.25,528.73 173.37,534.13 210.79,534.13 223.26,512.53 
				241.97,512.53 232.61,528.73 238.85,539.53 245.09,539.53 238.85,528.73 			"/>
			<polygon points="210.79,469.32 220.14,453.12 229.5,469.32 241.97,469.32 245.09,463.92 232.61,463.92 223.26,447.72 
				226.38,442.32 229.5,436.92 223.26,436.92 204.55,469.32 217.03,490.92 207.67,507.13 198.32,490.92 185.85,490.92 
				182.73,496.32 195.2,496.32 204.55,512.53 198.32,523.33 204.55,523.33 223.26,490.92 			"/>
			<polygon points="263.8,496.32 238.85,496.32 229.5,480.12 248.2,480.12 254.44,469.32 251.32,463.92 245.09,474.72 
				226.38,474.72 220.14,463.92 217.03,469.32 235.73,501.72 260.68,501.72 270.03,517.93 251.32,517.93 245.09,528.73 
				248.2,534.13 254.44,523.33 273.15,523.33 279.38,534.13 282.5,528.73 276.27,517.93 			"/>
			<polygon points="223.26,501.72 229.5,501.72 226.38,496.32 			"/>
			<polygon points="282.5,507.12 291.86,490.92 301.21,507.12 313.68,507.12 316.8,501.73 304.33,501.73 294.98,485.52 
				298.09,480.12 301.21,474.72 294.98,474.72 276.27,507.12 288.74,528.73 282.5,539.53 288.74,539.53 294.98,528.73 			"/>
			<polygon points="310.57,534.13 301.21,517.93 319.92,517.93 326.16,507.12 323.04,501.73 316.8,512.52 298.09,512.52 
				291.86,501.73 288.74,507.12 307.45,539.53 332.39,539.53 338.63,539.53 335.51,534.13 			"/>
			<polygon points="176.49,474.72 188.96,474.72 185.85,469.32 148.43,469.32 135.96,490.92 117.25,490.92 126.6,474.72 
				120.37,463.92 114.13,463.92 120.37,474.72 111.01,490.92 98.54,490.92 101.66,496.32 139.08,496.32 151.55,474.72 
				170.25,474.72 160.9,490.92 167.14,501.73 173.37,501.73 167.14,490.92 			"/>
			<polygon points="132.84,474.72 126.6,485.52 132.84,485.52 151.55,453.12 139.08,431.52 148.43,415.31 157.78,431.52 
				170.26,431.52 173.37,426.12 160.9,426.12 151.55,409.91 154.66,404.51 157.78,399.11 151.55,399.11 132.84,431.52 
				145.31,453.12 135.96,469.32 126.6,453.12 114.13,453.12 111.01,458.52 123.48,458.52 			"/>
			<polygon points="207.67,496.32 210.79,490.92 204.55,480.12 192.08,458.52 167.14,458.52 157.78,442.32 176.49,442.32 
				182.73,431.52 179.61,426.12 173.37,436.92 154.66,436.92 148.43,426.12 145.31,431.52 164.02,463.92 188.96,463.92 
				198.32,480.12 179.61,480.12 173.37,490.92 176.49,496.32 182.73,485.52 201.44,485.52 			"/>
			<polygon points="154.66,458.52 151.55,463.92 157.78,463.92 			"/>
			<polygon points="79.84,436.92 98.54,436.92 89.19,453.12 95.43,463.92 101.66,463.92 95.43,453.12 104.78,436.92 117.25,436.92 
				114.14,431.52 76.72,431.52 64.25,453.12 54.89,453.12 54.89,458.52 67.36,458.52 			"/>
			<polygon points="54.89,436.91 54.89,436.92 54.89,436.92 			"/>
			<polygon points="54.89,447.72 61.13,447.72 79.84,415.31 67.36,393.71 76.72,377.51 86.07,393.71 98.55,393.71 101.66,388.31 
				89.19,388.31 79.84,372.11 82.95,366.71 86.07,361.31 79.84,361.31 61.13,393.71 73.6,415.31 64.25,431.52 54.89,415.31 
				54.89,415.31 54.89,426.11 61.13,436.92 			"/>
			<polygon points="129.72,447.72 135.96,458.52 139.08,453.12 132.84,442.32 120.37,420.71 95.43,420.71 86.07,404.51 
				104.78,404.51 111.02,393.71 107.9,388.31 101.66,399.11 82.95,399.11 76.72,388.31 73.6,393.71 92.31,426.11 117.25,426.11 
				126.61,442.32 107.9,442.32 101.66,453.12 104.78,458.52 111.02,447.72 			"/>
			<polygon points="79.84,426.11 86.07,426.11 82.95,420.71 			"/>
			<polygon points="64.25,517.93 58.01,528.73 64.25,528.73 82.96,496.32 70.48,474.72 79.84,458.52 89.19,474.72 101.66,474.72 
				104.78,469.32 92.31,469.32 82.96,453.12 86.07,447.72 89.19,442.32 82.96,442.32 64.25,474.72 76.72,496.32 67.37,512.53 
				58.01,496.32 54.89,496.32 54.89,501.72 54.89,501.72 			"/>
			<polygon points="135.96,523.33 123.49,501.72 98.55,501.72 89.19,485.52 107.9,485.52 114.13,474.72 111.02,469.32 
				104.78,480.12 86.07,480.12 79.84,469.32 76.72,474.72 95.43,507.13 120.37,507.13 129.72,523.33 111.02,523.33 104.78,534.13 
				107.9,539.53 107.9,539.53 114.13,528.73 132.84,528.73 139.08,539.53 139.08,539.53 142.2,534.13 			"/>
			<polygon points="89.19,507.13 86.07,501.72 82.96,507.13 			"/>
			<polygon points="142.19,512.53 151.55,496.32 160.9,512.53 173.37,512.53 176.49,507.13 164.02,507.13 154.67,490.92 
				157.78,485.52 160.9,480.12 154.67,480.12 135.96,512.53 148.43,534.13 145.31,539.53 151.55,539.53 154.67,534.13 			"/>
			<polygon points="179.61,523.33 185.84,512.53 182.73,507.13 176.49,517.93 157.78,517.93 151.55,507.13 148.43,512.53 
				164.02,539.53 170.26,539.53 160.9,523.33 			"/>
			<polygon points="67.36,501.73 70.48,496.32 64.25,485.52 54.89,469.31 54.89,480.12 58.01,485.52 54.89,485.52 54.89,490.92 
				61.13,490.92 			"/>
			<polygon points="64.24,420.72 67.36,415.32 61.12,404.51 54.89,393.71 54.89,409.91 58.01,409.91 			"/>
			<polygon points="64.24,334.31 58.01,323.51 54.89,318.11 54.89,328.91 61.12,339.71 			"/>
			<polygon points="61.13,253.3 54.89,242.5 54.89,253.3 58.01,258.7 			"/>
			<polygon points="54.89,166.89 54.89,177.69 58.01,172.29 			"/>
			<polygon points="86.07,112.88 76.71,129.09 82.95,139.89 89.19,139.89 82.95,129.09 92.31,112.88 104.78,112.88 101.66,107.48 
				64.24,107.48 54.89,123.69 54.89,134.49 67.36,112.88 			"/>
			<polygon points="73.6,69.68 86.07,69.68 89.19,64.28 76.71,64.28 67.36,48.08 70.48,42.68 73.6,37.28 67.36,37.28 54.89,58.88 
				54.89,69.68 64.24,53.48 			"/>
			<polygon points="54.89,69.68 54.89,80.48 61.13,91.28 54.89,102.08 54.89,112.89 67.36,91.28 			"/>
			<polygon points="117.25,123.69 123.48,134.49 126.6,129.09 120.37,118.29 107.9,96.68 82.95,96.68 73.6,80.48 92.31,80.48 
				98.54,69.68 95.42,64.28 89.19,75.08 70.48,75.08 64.24,64.28 61.13,69.68 79.83,102.08 104.78,102.08 114.13,118.29 
				95.42,118.29 89.19,129.09 92.31,134.49 98.54,123.69 			"/>
			<polygon points="67.36,102.08 73.6,102.08 70.48,96.68 			"/>
			<polygon points="82.95,85.88 86.07,91.28 123.49,91.28 135.96,69.68 154.67,69.68 145.31,85.88 151.55,96.68 157.78,96.68 
				151.55,85.88 160.9,69.68 173.37,69.68 170.26,64.28 132.84,64.28 120.37,85.88 101.66,85.88 111.02,69.68 104.78,58.88 
				98.54,58.88 104.78,69.68 95.42,85.88 			"/>
			<polygon points="135.96,4.87 139.08,-0.53 142.2,-5.93 135.96,-5.93 117.25,26.48 129.72,48.08 120.37,64.28 111.02,48.08 
				98.54,48.08 95.42,53.48 107.9,53.48 117.25,69.68 111.02,80.48 117.25,80.48 135.96,48.08 123.49,26.48 132.84,10.27 
				142.2,26.48 154.67,26.48 157.78,21.08 145.31,21.08 			"/>
			<polygon points="139.08,31.88 132.84,21.08 129.72,26.48 148.43,58.88 173.37,58.88 182.73,75.08 164.02,75.08 157.78,85.88 
				160.9,91.28 167.14,80.48 185.85,80.48 192.08,91.28 195.2,85.88 188.96,75.08 176.49,53.48 151.55,53.48 142.2,37.28 
				160.9,37.28 167.14,26.48 164.02,21.08 157.78,31.88 			"/>
			<polygon points="135.96,58.88 142.2,58.88 139.08,53.48 			"/>
			<polygon points="164.02,42.68 151.55,42.68 154.67,48.08 192.08,48.08 204.55,26.48 223.26,26.48 213.91,42.68 220.14,53.48 
				226.38,53.48 220.14,42.68 229.5,26.48 241.97,26.48 238.85,21.08 201.44,21.08 188.96,42.68 170.26,42.68 179.61,26.48 
				173.37,15.67 167.14,15.67 173.37,26.48 			"/>
			<polygon points="198.32,4.87 188.96,21.08 179.61,4.87 167.14,4.87 164.02,10.27 176.49,10.27 185.85,26.48 179.61,37.28 
				185.85,37.28 204.55,4.87 192.08,-16.73 198.32,-27.53 192.08,-27.53 185.85,-16.73 			"/>
			<polygon points="241.97,15.67 251.32,31.88 232.62,31.88 226.38,42.68 229.5,48.08 235.73,37.28 254.44,37.28 260.68,48.08 
				263.8,42.68 257.56,31.88 245.09,10.27 220.14,10.27 210.79,-5.93 229.5,-5.93 235.73,-16.73 232.62,-22.13 226.38,-11.33 
				207.67,-11.33 201.44,-22.13 198.32,-16.73 217.03,15.67 			"/>
			<polygon points="207.67,10.27 204.55,15.67 210.79,15.67 			"/>
			<polygon points="92.31,4.87 79.83,4.87 82.95,10.27 120.37,10.27 132.84,-11.33 151.55,-11.33 142.19,4.87 148.43,15.67 
				154.67,15.67 148.43,4.87 157.78,-11.33 170.26,-11.33 167.14,-16.73 129.72,-16.73 117.25,4.87 98.54,4.87 107.9,-11.33 
				101.66,-22.13 95.42,-22.13 101.66,-11.33 			"/>
			<polygon points="170.26,-22.13 179.61,-5.93 160.9,-5.93 154.67,4.87 157.78,10.27 164.02,-0.53 182.73,-0.53 188.96,10.27 
				192.08,4.87 185.85,-5.93 173.38,-27.53 142.2,-27.53 145.31,-22.13 			"/>
			<polygon points="232.62,-0.53 220.14,-0.53 223.26,4.87 260.68,4.87 273.15,-16.73 291.86,-16.73 282.5,-0.53 288.74,10.28 
				294.98,10.28 288.74,-0.53 298.09,-16.73 310.57,-16.73 307.45,-22.13 270.03,-22.13 257.56,-0.53 238.85,-0.53 248.21,-16.73 
				241.97,-27.53 235.74,-27.53 241.97,-16.73 			"/>
			<polygon points="301.21,-11.33 294.98,-0.53 298.09,4.87 304.33,-5.93 323.04,-5.93 329.27,4.87 332.39,-0.53 326.16,-11.33 
				316.8,-27.53 310.57,-27.53 319.92,-11.33 			"/>
			<polygon points="372.93,-5.93 360.45,-5.93 363.57,-0.53 400.99,-0.53 413.46,-22.13 432.17,-22.13 422.81,-5.93 429.05,4.88 
				435.29,4.88 429.05,-5.93 438.4,-22.13 450.88,-22.13 447.76,-27.53 410.34,-27.53 397.87,-5.93 379.16,-5.93 388.52,-22.13 
				385.4,-27.53 379.16,-27.53 382.28,-22.13 			"/>
			<polygon points="447.76,4.87 454,15.68 444.64,31.88 432.17,31.88 435.29,37.28 457.11,37.28 457.11,31.88 450.88,31.88 
				457.11,21.08 457.11,10.27 454,4.87 			"/>
			<polygon points="435.29,112.89 438.4,118.29 457.11,118.29 457.11,112.89 453.99,112.89 457.11,107.49 457.11,96.69 
				447.76,112.89 			"/>
			<polygon points="457.11,96.68 457.11,85.88 450.88,85.88 			"/>
			<polygon points="447.76,80.48 457.11,80.48 457.11,75.08 450.88,75.08 			"/>
			<polygon points="438.4,193.89 441.52,199.29 457.11,199.29 457.11,183.1 450.88,193.89 			"/>
			<polygon points="457.11,172.29 457.11,166.89 453.99,166.89 			"/>
			<polygon points="450.88,161.49 457.11,161.49 457.11,156.09 453.99,156.09 			"/>
			<polygon points="441.52,274.9 444.64,280.3 457.11,280.3 457.11,269.5 453.99,274.9 			"/>
			<polygon points="457.11,242.5 457.11,237.1 453.99,242.5 			"/>
			<polygon points="447.76,361.31 457.11,361.31 457.11,355.91 444.64,355.91 			"/>
			<polygon points="450.88,442.32 457.11,442.32 457.11,436.92 447.76,436.92 			"/>
			<polygon points="82.95,31.88 73.6,48.08 79.83,58.88 86.07,58.88 79.83,48.08 89.19,31.88 101.66,31.88 98.54,26.48 61.13,26.48 
				54.89,37.28 54.89,48.08 64.24,31.88 			"/>
			<polygon points="54.89,-5.93 54.89,4.87 58.01,10.27 54.89,15.68 54.89,26.48 64.24,10.27 			"/>
			<polygon points="114.13,42.68 120.37,53.48 123.49,48.08 117.25,37.28 104.78,15.67 79.83,15.67 70.48,-0.53 89.19,-0.53 
				95.42,-11.33 92.31,-16.73 86.07,-5.93 67.36,-5.93 61.13,-16.73 58.01,-11.33 76.72,21.07 101.66,21.07 111.01,37.28 
				92.31,37.28 86.07,48.08 89.19,53.48 95.42,42.68 			"/>
			<polygon points="64.24,21.07 70.48,21.07 67.36,15.67 			"/>
			<polygon points="316.8,469.32 329.27,469.32 326.16,463.92 288.74,463.92 276.27,485.52 257.56,485.52 266.91,469.32 
				260.68,458.52 254.44,458.52 260.68,469.32 251.32,485.52 238.85,485.52 241.97,490.92 279.38,490.92 291.86,469.32 
				310.56,469.32 301.21,485.52 307.45,496.32 313.68,496.32 307.45,485.52 			"/>
			<polygon points="288.74,409.91 298.09,426.12 310.57,426.12 313.68,420.72 301.21,420.72 291.86,404.51 294.97,399.11 
				298.09,393.71 291.86,393.71 273.15,426.12 285.62,447.72 276.27,463.92 266.91,447.72 254.44,447.72 251.32,453.12 
				263.8,453.12 273.15,469.32 266.91,480.12 273.15,480.12 291.86,447.72 279.38,426.12 			"/>
			<polygon points="347.98,490.92 351.1,485.52 344.86,474.72 332.39,453.12 307.45,453.12 298.09,436.92 316.8,436.92 
				323.04,426.12 319.92,420.72 313.68,431.52 294.97,431.52 288.74,420.72 285.62,426.12 304.33,458.52 329.27,458.52 
				338.63,474.72 319.92,474.72 313.68,485.52 316.8,490.92 323.04,480.12 341.74,480.12 			"/>
			<polygon points="294.97,453.12 291.86,458.52 298.09,458.52 			"/>
			<polygon points="397.87,426.12 394.75,420.72 357.34,420.72 344.86,442.32 326.16,442.32 335.51,426.12 329.27,415.31 
				323.04,415.31 329.27,426.12 319.92,442.32 307.45,442.32 310.56,447.72 347.98,447.72 360.45,426.12 379.16,426.12 
				369.81,442.32 376.04,453.12 382.28,453.12 376.04,442.32 385.4,426.12 			"/>
			<polygon points="341.74,426.12 335.51,436.92 341.74,436.92 360.45,404.51 347.98,382.91 357.34,366.71 366.69,382.91 
				379.16,382.91 382.28,377.51 369.81,377.51 360.45,361.31 363.57,355.91 366.69,350.51 360.45,350.51 341.74,382.91 
				354.22,404.51 344.86,420.72 335.51,404.51 323.04,404.51 319.92,409.91 332.39,409.91 			"/>
			<polygon points="382.28,388.31 363.57,388.31 357.33,377.51 354.22,382.91 372.93,415.31 397.87,415.31 407.22,431.52 
				388.52,431.52 382.28,442.32 385.4,447.72 391.63,436.92 410.34,436.92 416.58,447.72 419.69,442.32 413.46,431.52 
				400.99,409.91 376.04,409.91 366.69,393.71 385.4,393.71 391.63,382.91 388.52,377.51 			"/>
			<polygon points="363.57,409.91 360.45,415.31 366.69,415.31 			"/>
			<polygon points="416.58,480.12 397.87,480.12 407.22,463.92 400.99,453.12 394.75,453.12 400.99,463.92 391.63,480.12 
				379.16,480.12 382.28,485.52 419.7,485.52 432.17,463.92 450.88,463.92 441.52,480.12 447.76,490.92 453.99,490.92 
				447.76,480.12 457.11,463.92 457.11,458.52 429.05,458.52 			"/>
			<polygon points="416.58,458.52 407.22,442.32 394.75,442.32 391.63,447.72 404.11,447.72 413.46,463.92 407.22,474.72 
				413.46,474.72 432.17,442.32 419.7,420.72 429.05,404.51 438.41,420.72 450.88,420.72 453.99,415.32 441.52,415.32 
				432.17,399.11 435.29,393.71 438.41,388.31 432.17,388.31 413.46,420.72 425.93,442.32 			"/>
			<polygon points="435.29,426.12 429.05,415.32 425.93,420.72 444.64,453.12 457.11,453.12 457.11,447.72 447.76,447.72 
				438.41,431.52 457.11,431.52 457.11,420.72 453.99,426.12 			"/>
			<polygon points="457.11,485.52 457.11,474.73 453.99,480.12 			"/>
			<polygon points="438.41,453.12 435.29,447.72 432.17,453.12 			"/>
			<polygon points="388.52,507.13 400.99,507.13 397.87,501.72 360.45,501.72 347.98,523.33 329.27,523.33 338.63,507.13 
				332.39,496.32 326.16,496.32 332.39,507.13 323.04,523.33 310.57,523.33 313.68,528.73 351.1,528.73 363.57,507.13 
				382.28,507.13 372.93,523.33 379.16,534.13 385.4,534.13 379.16,523.33 			"/>
			<polygon points="344.86,507.13 338.63,517.93 344.86,517.93 363.57,485.52 351.1,463.92 360.45,447.72 369.81,463.92 
				382.28,463.92 385.4,458.52 372.93,458.52 363.57,442.32 366.69,436.92 369.81,431.52 363.57,431.52 344.86,463.92 
				357.34,485.52 347.98,501.72 338.63,485.52 326.16,485.52 323.04,490.92 335.51,490.92 			"/>
			<polygon points="416.58,512.53 404.11,490.92 379.16,490.92 369.81,474.72 388.52,474.72 394.75,463.92 391.63,458.52 
				385.4,469.32 366.69,469.32 360.45,458.52 357.34,463.92 376.04,496.32 400.99,496.32 410.34,512.53 391.63,512.53 385.4,523.33 
				388.52,528.73 394.75,517.93 413.46,517.93 419.69,528.73 422.81,523.33 			"/>
			<polygon points="366.69,490.92 363.57,496.32 369.81,496.32 			"/>
			<polygon points="422.81,501.72 432.17,485.52 441.52,501.72 453.99,501.72 457.11,496.33 457.11,496.32 444.64,496.32 
				435.29,480.12 438.4,474.72 441.52,469.32 435.29,469.32 416.58,501.72 429.05,523.33 419.7,539.53 425.93,539.53 435.29,523.33 
							"/>
			<polygon points="441.52,512.53 457.11,512.53 457.11,507.12 438.4,507.12 432.17,496.32 429.05,501.72 447.76,534.13 
				457.11,534.13 457.11,528.73 450.87,528.73 			"/>
			<polygon points="413.46,399.11 394.75,399.11 404.11,382.91 397.87,372.11 391.63,372.11 397.87,382.91 388.52,399.11 
				376.04,399.11 379.16,404.52 416.58,404.52 429.05,382.91 447.76,382.91 438.4,399.11 444.64,409.92 450.88,409.92 
				444.64,399.11 453.99,382.91 457.11,382.91 457.11,377.51 425.93,377.51 			"/>
			<polygon points="422.81,361.31 413.46,377.51 404.11,361.31 391.63,361.31 388.52,366.71 400.99,366.71 410.34,382.91 
				404.11,393.71 410.34,393.71 429.05,361.31 416.58,339.71 425.93,323.51 435.29,339.71 447.76,339.71 450.88,334.31 
				438.4,334.31 429.05,318.1 432.17,312.7 435.29,307.31 429.05,307.31 410.34,339.71 			"/>
			<polygon points="432.17,345.11 425.93,334.31 422.81,339.71 441.52,372.11 457.11,372.11 457.11,366.71 444.64,366.71 
				435.29,350.51 453.99,350.51 457.11,345.11 457.11,334.31 450.88,345.11 			"/>
			<polygon points="453.99,404.52 457.11,399.11 457.11,388.31 450.88,399.11 			"/>
			<polygon points="435.29,372.11 432.17,366.71 429.05,372.11 			"/>
			<polygon points="185.85,393.71 182.73,388.31 145.31,388.31 132.84,409.91 114.13,409.91 123.49,393.71 117.25,382.91 
				111.01,382.91 117.25,393.71 107.9,409.91 95.42,409.91 98.54,415.32 135.96,415.32 148.43,393.71 167.14,393.71 157.78,409.91 
				164.02,420.72 170.26,420.72 164.02,409.91 173.37,393.71 			"/>
			<polygon points="132.84,388.31 123.49,372.11 111.01,372.11 107.9,377.51 120.37,377.51 129.72,393.71 123.49,404.51 
				129.72,404.51 148.43,372.11 135.96,350.51 145.31,334.31 154.67,350.51 167.14,350.51 170.26,345.11 157.78,345.11 
				148.43,328.91 151.55,323.51 154.67,318.11 148.43,318.11 129.72,350.51 142.19,372.11 			"/>
			<polygon points="179.61,404.51 198.32,404.51 204.55,415.32 207.67,409.91 201.43,399.11 188.96,377.51 164.02,377.51 
				154.67,361.31 173.37,361.31 179.61,350.51 176.49,345.11 170.26,355.91 151.55,355.91 145.31,345.11 142.19,350.51 
				160.9,382.91 185.85,382.91 195.2,399.11 176.49,399.11 170.26,409.91 173.37,415.32 			"/>
			<polygon points="151.55,377.51 148.43,382.91 154.67,382.91 			"/>
			<polygon points="154.67,123.69 157.78,129.09 195.2,129.09 207.67,107.48 226.38,107.48 217.03,123.69 223.26,134.49 
				229.5,134.49 223.26,123.69 232.62,107.48 245.09,107.48 241.97,102.08 204.55,102.08 192.08,123.69 173.37,123.69 
				182.73,107.48 176.49,96.68 170.26,96.68 176.49,107.48 167.14,123.69 			"/>
			<polygon points="192.08,102.08 182.73,85.88 170.26,85.88 167.14,91.28 179.61,91.28 188.96,107.49 182.73,118.29 188.96,118.29 
				207.67,85.88 195.2,64.28 204.55,48.08 213.91,64.28 226.38,64.28 229.5,58.88 217.03,58.88 207.67,42.68 210.79,37.28 
				213.91,31.88 207.67,31.88 188.96,64.28 201.44,85.88 			"/>
			<polygon points="229.5,69.68 210.79,69.68 204.55,58.88 201.44,64.28 220.14,96.68 245.09,96.68 254.44,112.89 235.73,112.89 
				229.5,123.69 232.62,129.09 238.85,118.29 257.56,118.29 263.8,129.09 266.91,123.69 260.68,112.89 248.21,91.28 223.26,91.28 
				213.91,75.08 232.62,75.08 238.85,64.28 235.73,58.88 			"/>
			<polygon points="207.67,96.68 213.91,96.68 210.79,91.28 			"/>
			<polygon points="223.26,80.48 226.38,85.88 263.8,85.88 276.27,64.28 294.98,64.28 285.62,80.48 291.86,91.28 298.09,91.28 
				291.86,80.48 301.21,64.28 313.68,64.28 310.57,58.88 273.15,58.88 260.68,80.48 241.97,80.48 251.32,64.28 245.09,53.48 
				238.85,53.48 245.09,64.28 235.73,80.48 			"/>
			<polygon points="270.03,42.68 260.68,58.88 251.32,42.68 238.85,42.68 235.73,48.08 248.21,48.08 257.56,64.28 251.32,75.08 
				257.56,75.08 276.27,42.68 263.8,21.08 273.15,4.87 282.51,21.08 294.98,21.08 298.09,15.68 285.62,15.68 276.27,-0.53 
				279.39,-5.93 282.51,-11.33 276.27,-11.33 257.56,21.08 			"/>
			<polygon points="279.39,26.48 273.15,15.68 270.03,21.08 288.74,53.48 313.68,53.48 323.04,69.68 304.33,69.68 298.09,80.48 
				301.21,85.88 307.45,75.08 326.16,75.08 332.39,85.88 335.51,80.48 329.27,69.68 316.8,48.08 291.86,48.08 282.51,31.88 
				301.21,31.88 307.45,21.08 304.33,15.68 298.09,26.48 			"/>
			<polygon points="276.27,53.48 282.51,53.48 279.39,48.08 			"/>
			<polygon points="304.33,37.28 291.86,37.28 294.98,42.68 332.39,42.68 344.86,21.08 363.57,21.08 354.22,37.28 360.45,48.08 
				366.69,48.08 360.45,37.28 369.81,21.08 382.28,21.08 379.16,15.68 341.75,15.68 329.27,37.28 310.57,37.28 319.92,21.08 
				313.68,10.27 307.45,10.27 313.68,21.08 			"/>
			<polygon points="338.63,-0.53 329.27,15.68 319.92,-0.53 307.45,-0.53 304.33,4.87 316.8,4.87 326.16,21.08 319.92,31.88 
				326.16,31.88 344.86,-0.53 332.39,-22.13 335.51,-27.53 329.27,-27.53 326.16,-22.13 			"/>
			<polygon points="357.34,10.27 382.28,10.27 391.63,26.48 372.93,26.48 366.69,37.28 369.81,42.68 376.04,31.88 394.75,31.88 
				400.99,42.68 404.11,37.28 397.87,26.48 385.4,4.87 360.45,4.87 351.1,-11.33 369.81,-11.33 376.04,-22.13 372.93,-27.53 
				372.93,-27.53 366.69,-16.73 347.98,-16.73 341.75,-27.53 341.75,-27.53 338.63,-22.13 			"/>
			<polygon points="347.98,4.87 344.86,10.27 351.1,10.27 			"/>
			<polygon points="251.32,269.5 248.21,264.1 210.79,264.1 198.32,285.7 179.61,285.7 188.96,269.5 182.73,258.7 176.49,258.7 
				182.73,269.5 173.37,285.7 160.9,285.7 164.02,291.1 201.44,291.1 213.91,269.5 232.62,269.5 223.26,285.7 229.5,296.5 
				235.73,296.5 229.5,285.7 238.85,269.5 			"/>
			<polygon points="198.32,264.1 188.96,247.9 176.49,247.9 173.37,253.3 185.85,253.3 195.2,269.5 188.96,280.3 195.2,280.3 
				213.91,247.9 201.44,226.3 210.79,210.09 220.14,226.3 232.62,226.3 235.73,220.9 223.26,220.9 213.91,204.69 217.03,199.29 
				220.14,193.89 213.91,193.89 195.2,226.3 207.67,247.9 			"/>
			<polygon points="245.09,280.3 263.8,280.3 270.03,291.1 273.15,285.7 266.91,274.9 254.44,253.3 229.5,253.3 220.14,237.1 
				238.85,237.1 245.09,226.3 241.97,220.9 235.73,231.7 217.03,231.7 210.79,220.9 207.67,226.3 226.38,258.7 251.32,258.7 
				260.68,274.9 241.97,274.9 235.73,285.7 238.85,291.1 			"/>
			<polygon points="217.03,253.3 213.91,258.7 220.14,258.7 			"/>
			<polygon points="323.04,307.3 319.92,301.9 282.5,301.9 270.03,323.51 251.32,323.51 260.68,307.3 254.44,296.5 248.21,296.5 
				254.44,307.3 245.09,323.51 232.62,323.51 235.73,328.91 273.15,328.91 285.62,307.3 304.33,307.3 294.98,323.51 301.21,334.31 
				307.45,334.31 301.21,323.51 310.56,307.3 			"/>
			<polygon points="282.5,247.9 291.86,264.1 304.33,264.1 307.45,258.7 294.98,258.7 285.62,242.5 288.74,237.1 291.86,231.7 
				285.62,231.7 266.91,264.1 279.39,285.7 270.03,301.9 260.68,285.7 248.21,285.7 245.09,291.1 257.56,291.1 266.91,307.31 
				260.68,318.11 266.91,318.11 285.62,285.7 273.15,264.1 			"/>
			<polygon points="335.51,318.11 341.74,328.91 344.86,323.51 338.63,312.71 326.16,291.1 301.21,291.1 291.86,274.9 310.56,274.9 
				316.8,264.1 313.68,258.7 307.45,269.5 288.74,269.5 282.5,258.7 279.39,264.1 298.09,296.5 323.04,296.5 332.39,312.71 
				313.68,312.71 307.45,323.51 310.56,328.91 316.8,318.11 			"/>
			<polygon points="285.62,296.5 291.86,296.5 288.74,291.1 			"/>
			<polygon points="229.5,242.5 232.62,247.9 270.03,247.9 282.5,226.3 301.21,226.3 291.86,242.5 298.09,253.3 304.33,253.3 
				298.09,242.5 307.45,226.3 319.92,226.3 316.8,220.9 279.39,220.9 266.91,242.5 248.21,242.5 257.56,226.3 251.32,215.5 
				245.09,215.5 251.32,226.3 241.97,242.5 			"/>
			<polygon points="282.5,161.49 285.62,156.09 288.74,150.69 282.5,150.69 263.8,183.09 276.27,204.69 266.91,220.9 257.56,204.69 
				245.09,204.69 241.97,210.1 254.44,210.1 263.8,226.3 257.56,237.1 263.8,237.1 282.5,204.69 270.03,183.09 279.39,166.89 
				288.74,183.09 301.21,183.09 304.33,177.69 291.86,177.69 			"/>
			<polygon points="313.68,183.09 310.57,177.69 304.33,188.49 285.62,188.49 279.39,177.69 276.27,183.09 294.98,215.5 
				319.92,215.5 329.27,231.7 310.57,231.7 304.33,242.5 307.45,247.9 313.68,237.1 332.39,237.1 338.63,247.9 341.75,242.5 
				335.51,231.7 323.04,210.09 298.09,210.09 288.74,193.89 307.45,193.89 			"/>
			<polygon points="282.5,215.5 288.74,215.5 285.62,210.1 			"/>
			<polygon points="388.52,183.09 385.4,177.69 347.98,177.69 335.51,199.29 316.8,199.29 326.16,183.09 319.92,172.29 
				313.68,172.29 319.92,183.09 310.57,199.29 298.09,199.29 301.21,204.7 338.63,204.7 351.1,183.09 369.81,183.09 360.45,199.29 
				366.69,210.1 372.93,210.1 366.69,199.29 376.04,183.09 			"/>
			<polygon points="347.98,123.69 357.34,139.89 369.81,139.89 372.93,134.49 360.45,134.49 351.1,118.29 354.22,112.89 
				357.34,107.49 351.1,107.49 332.39,139.89 344.86,161.49 335.51,177.69 326.16,161.49 313.68,161.49 310.57,166.89 
				323.04,166.89 332.39,183.09 326.16,193.89 332.39,193.89 351.1,161.49 338.63,139.89 			"/>
			<polygon points="372.93,145.29 354.22,145.29 347.98,134.49 344.86,139.89 363.57,172.29 388.52,172.29 397.87,188.49 
				379.16,188.49 372.93,199.29 376.04,204.7 382.28,193.89 400.99,193.89 407.22,204.7 410.34,199.29 404.11,188.49 391.63,166.89 
				366.69,166.89 357.34,150.69 376.04,150.69 382.28,139.89 379.16,134.49 			"/>
			<polygon points="351.1,172.29 357.34,172.29 354.22,166.89 			"/>
			<polygon points="226.38,161.49 229.5,166.89 266.91,166.89 279.39,145.29 298.09,145.29 288.74,161.49 294.98,172.29 
				301.21,172.29 294.98,161.49 304.33,145.29 316.8,145.29 313.69,139.89 276.27,139.89 263.8,161.49 245.09,161.49 254.44,145.29 
				248.21,134.49 241.97,134.49 248.21,145.29 238.85,161.49 			"/>
			<polygon points="279.39,80.48 282.5,75.08 285.62,69.68 279.39,69.68 260.68,102.08 273.15,123.69 263.8,139.89 254.44,123.69 
				241.97,123.69 238.85,129.09 251.32,129.09 260.68,145.29 254.44,156.09 260.68,156.09 279.39,123.69 266.91,102.08 
				276.27,85.88 285.62,102.08 298.09,102.08 301.21,96.68 288.74,96.68 			"/>
			<polygon points="301.21,107.48 282.5,107.48 276.27,96.68 273.15,102.08 291.86,134.49 316.8,134.49 326.16,150.69 
				307.45,150.69 301.21,161.49 304.33,166.89 310.57,156.09 329.27,156.09 335.51,166.89 338.63,161.49 332.39,150.69 
				319.92,129.09 294.98,129.09 285.62,112.88 304.33,112.89 310.57,102.08 307.45,96.68 			"/>
			<polygon points="279.39,134.49 285.62,134.49 282.5,129.09 			"/>
			<polygon points="294.98,118.29 298.09,123.69 335.51,123.69 347.98,102.08 366.69,102.08 357.34,118.29 363.57,129.09 
				369.81,129.09 363.57,118.29 372.93,102.08 385.4,102.08 382.28,96.68 344.86,96.68 332.39,118.29 313.68,118.29 323.04,102.08 
				316.8,91.28 310.57,91.28 316.8,102.08 307.45,118.29 			"/>
			<polygon points="347.98,37.28 351.1,31.88 354.22,26.48 347.98,26.48 329.27,58.88 341.75,80.48 332.39,96.68 323.04,80.48 
				310.57,80.48 307.45,85.88 319.92,85.88 329.27,102.09 323.04,112.88 329.27,112.88 347.98,80.48 335.51,58.88 344.86,42.68 
				354.22,58.88 366.69,58.88 369.81,53.48 357.34,53.48 			"/>
			<polygon points="351.1,64.28 344.86,53.48 341.75,58.88 360.45,91.28 385.4,91.28 394.75,107.48 376.04,107.48 369.81,118.29 
				372.93,123.69 379.16,112.88 397.87,112.88 404.11,123.69 407.22,118.29 400.99,107.48 388.52,85.88 363.57,85.88 354.22,69.68 
				372.93,69.68 379.16,58.88 376.04,53.48 369.81,64.28 			"/>
			<polygon points="347.98,91.28 354.22,91.28 351.1,85.88 			"/>
			<polygon points="400.99,75.08 382.28,75.08 391.63,58.88 385.4,48.08 379.16,48.08 385.4,58.88 376.04,75.08 363.57,75.08 
				366.69,80.48 404.11,80.48 416.58,58.88 435.29,58.88 425.93,75.08 432.17,85.88 438.4,85.88 432.17,75.08 441.52,58.88 
				453.99,58.88 450.88,53.48 413.46,53.48 			"/>
			<polygon points="397.87,58.88 391.63,69.68 397.87,69.68 416.58,37.28 404.11,15.68 413.46,-0.53 422.81,15.68 435.29,15.68 
				438.4,10.28 425.93,10.28 416.58,-5.93 419.7,-11.33 422.81,-16.73 416.58,-16.73 397.87,15.67 410.34,37.28 400.99,53.48 
				391.63,37.28 379.16,37.28 376.04,42.68 388.52,42.68 			"/>
			<polygon points="422.81,26.48 441.52,26.48 447.76,15.68 444.64,10.28 438.4,21.08 419.7,21.08 413.46,10.28 410.34,15.68 
				429.05,48.08 453.99,48.08 457.11,53.48 457.11,42.68 432.17,42.68 			"/>
			<polygon points="438.4,75.08 441.52,80.48 447.76,69.68 457.11,69.68 457.11,64.28 444.64,64.28 			"/>
			<polygon points="422.81,48.08 419.7,42.68 416.58,48.08 			"/>
			<polygon points="416.58,134.49 404.11,156.09 385.4,156.09 394.75,139.89 388.52,129.09 382.28,129.09 388.52,139.89 
				379.16,156.09 366.69,156.09 369.81,161.49 407.22,161.49 419.7,139.89 438.4,139.89 429.05,156.09 435.29,166.89 441.52,166.89 
				435.29,156.09 444.64,139.89 457.11,139.89 457.11,139.88 454,134.49 			"/>
			<polygon points="419.7,75.08 422.81,69.68 425.93,64.28 419.7,64.28 400.99,96.68 413.46,118.29 404.11,134.49 394.75,118.29 
				382.28,118.29 379.16,123.69 391.63,123.69 400.99,139.89 394.75,150.69 400.99,150.69 419.7,118.29 407.22,96.68 416.58,80.48 
				425.93,96.68 438.41,96.68 441.52,91.28 429.05,91.28 			"/>
			<polygon points="441.52,156.09 444.64,161.49 450.88,150.69 457.11,150.69 457.11,145.29 447.76,145.29 			"/>
			<polygon points="425.93,107.48 444.64,107.48 450.88,96.68 447.76,91.28 441.52,102.08 422.81,102.08 416.58,91.28 413.46,96.68 
				432.17,129.09 457.11,129.09 457.11,123.69 435.29,123.69 			"/>
			<polygon points="425.93,129.09 422.81,123.69 419.7,129.09 			"/>
			<polygon points="407.23,237.1 388.52,237.1 397.87,220.9 391.64,210.09 385.4,210.09 391.64,220.9 382.28,237.1 369.81,237.1 
				372.93,242.5 410.34,242.5 422.82,220.9 441.52,220.9 432.17,237.1 438.41,247.9 444.64,247.9 438.41,237.1 447.76,220.9 
				457.11,220.9 457.11,215.5 419.7,215.5 			"/>
			<polygon points="407.23,215.5 397.87,199.29 385.4,199.29 382.28,204.69 394.75,204.69 404.11,220.9 397.87,231.7 404.11,231.7 
				422.82,199.29 410.34,177.69 419.7,161.49 429.05,177.69 441.52,177.69 444.64,172.29 432.17,172.29 422.82,156.09 
				425.93,150.69 429.05,145.29 422.82,145.29 404.11,177.69 416.58,199.29 			"/>
			<polygon points="444.64,237.1 447.76,242.5 453.99,231.7 457.11,231.7 457.11,226.3 450.88,226.3 			"/>
			<polygon points="429.05,188.49 447.76,188.49 453.99,177.69 450.88,172.29 444.64,183.09 425.93,183.09 419.7,172.29 
				416.58,177.69 435.29,210.09 457.11,210.09 457.11,204.69 438.41,204.69 			"/>
			<polygon points="429.05,210.09 425.93,204.69 422.82,210.09 			"/>
			<polygon points="410.34,318.11 391.63,318.11 400.99,301.9 394.75,291.1 388.52,291.1 394.75,301.9 385.4,318.11 372.93,318.11 
				376.04,323.51 413.46,323.51 425.93,301.9 444.64,301.9 435.29,318.11 441.52,328.91 447.76,328.91 441.52,318.11 450.87,301.9 
				457.11,301.9 457.11,296.5 422.81,296.5 			"/>
			<polygon points="419.7,280.3 410.34,296.5 400.99,280.3 388.52,280.3 385.4,285.7 397.87,285.7 407.22,301.91 400.99,312.7 
				407.22,312.7 425.93,280.3 413.46,258.7 422.81,242.5 432.17,258.7 444.64,258.7 447.76,253.3 435.29,253.3 425.93,237.1 
				429.05,231.7 432.17,226.3 425.93,226.3 407.22,258.7 			"/>
			<polygon points="447.76,264.1 429.05,264.1 422.81,253.3 419.7,258.7 438.4,291.1 457.11,291.1 457.11,285.7 441.52,285.7 
				432.17,269.5 450.87,269.5 457.11,258.7 453.99,253.3 			"/>
			<polygon points="447.76,318.11 450.87,323.51 457.11,312.7 457.11,307.31 453.99,307.31 			"/>
			<polygon points="432.17,291.1 429.05,285.7 425.93,291.1 			"/>
			<polygon points="210.79,188.49 229.5,188.49 220.14,204.69 226.38,215.5 232.62,215.5 226.38,204.69 235.73,188.49 
				248.21,188.49 245.09,183.09 207.67,183.09 195.2,204.69 176.49,204.69 185.85,188.49 179.61,177.69 173.37,177.69 
				179.61,188.49 170.26,204.69 157.78,204.69 160.9,210.1 198.32,210.1 			"/>
			<polygon points="195.2,183.09 185.85,166.89 173.37,166.89 170.26,172.29 182.73,172.29 192.08,188.49 185.85,199.29 
				192.08,199.29 210.79,166.89 198.32,145.29 207.67,129.09 217.03,145.29 229.5,145.29 232.62,139.89 220.14,139.89 
				210.79,123.69 213.91,118.29 217.03,112.89 210.79,112.89 192.08,145.29 204.55,166.89 			"/>
			<polygon points="232.62,150.69 213.91,150.69 207.67,139.89 204.55,145.29 223.26,177.69 248.21,177.69 257.56,193.89 
				238.85,193.89 232.62,204.69 235.73,210.1 241.97,199.29 260.68,199.29 266.91,210.1 270.03,204.69 263.79,193.89 251.32,172.29 
				226.38,172.29 217.03,156.09 235.73,156.09 241.97,145.29 238.85,139.89 			"/>
			<polygon points="210.79,177.69 217.03,177.69 213.91,172.29 			"/>
			<polygon points="394.75,345.11 391.63,339.71 354.22,339.71 341.75,361.31 323.04,361.31 332.39,345.11 326.16,334.31 
				319.92,334.31 326.16,345.11 316.8,361.31 304.33,361.31 307.45,366.71 344.86,366.71 357.34,345.11 376.04,345.11 
				366.69,361.31 372.92,372.11 379.16,372.11 372.92,361.31 382.28,345.11 			"/>
			<polygon points="354.22,285.7 363.57,301.9 376.04,301.9 379.16,296.5 366.69,296.5 357.34,280.3 360.45,274.9 363.57,269.5 
				357.34,269.5 338.63,301.9 351.1,323.51 341.75,339.71 332.39,323.51 319.92,323.51 316.8,328.91 329.27,328.91 338.63,345.11 
				332.39,355.91 338.63,355.91 357.34,323.51 344.86,301.9 			"/>
			<polygon points="379.16,307.31 360.45,307.31 354.22,296.5 351.1,301.9 369.81,334.31 394.75,334.31 404.1,350.51 385.4,350.51 
				379.16,361.31 382.28,366.71 388.51,355.91 407.22,355.91 413.46,366.71 416.58,361.31 410.34,350.51 397.87,328.91 
				372.92,328.91 363.57,312.7 382.28,312.71 388.51,301.9 385.4,296.5 			"/>
			<polygon points="357.34,334.31 363.57,334.31 360.45,328.91 			"/>
			<polygon points="391.63,264.1 388.52,258.7 351.1,258.7 338.63,280.3 319.92,280.3 329.27,264.1 323.04,253.3 316.8,253.3 
				323.04,264.1 313.68,280.3 301.21,280.3 304.33,285.7 341.75,285.7 354.22,264.1 372.92,264.1 363.57,280.3 369.81,291.1 
				376.04,291.1 369.81,280.3 379.16,264.1 			"/>
			<polygon points="351.1,204.69 360.45,220.9 372.93,220.9 376.04,215.5 363.57,215.5 354.22,199.29 357.34,193.89 360.45,188.49 
				354.22,188.49 335.51,220.9 347.98,242.5 338.63,258.7 329.27,242.5 316.8,242.5 313.68,247.9 326.16,247.9 335.51,264.1 
				329.27,274.9 335.51,274.9 354.22,242.5 341.75,220.9 			"/>
			<polygon points="376.04,226.3 357.34,226.3 351.1,215.5 347.98,220.9 366.69,253.3 391.63,253.3 400.99,269.5 382.28,269.5 
				376.04,280.3 379.16,285.7 385.4,274.9 404.11,274.9 410.34,285.7 413.46,280.3 407.22,269.5 394.75,247.9 369.81,247.9 
				360.45,231.7 379.16,231.7 385.4,220.9 382.28,215.5 			"/>
			<polygon points="354.22,253.3 360.45,253.3 357.34,247.9 			"/>
			<polygon points="61.13,469.32 64.24,463.92 58.01,463.92 			"/>
			<polygon points="204.55,458.52 198.32,458.52 201.44,463.92 			"/>
			<polygon points="344.86,453.12 338.63,453.12 341.75,458.52 			"/>
			<polygon points="273.15,415.32 266.91,415.32 270.03,420.72 			"/>
			<polygon points="413.46,409.91 407.22,409.91 410.34,415.31 			"/>
			<polygon points="341.75,372.11 335.51,372.11 338.63,377.51 			"/>
			<polygon points="201.44,377.51 195.2,377.51 198.32,382.91 			"/>
			<polygon points="61.13,382.91 54.89,382.91 58.01,388.31 			"/>
			<polygon points="58.01,301.91 54.89,301.91 54.89,307.3 54.89,307.31 			"/>
			<polygon points="132.84,420.72 126.6,420.72 129.72,426.12 			"/>
			<polygon points="132.84,507.13 135.96,501.73 129.72,501.73 			"/>
			<polygon points="273.15,501.73 276.27,496.33 270.03,496.33 			"/>
			<polygon points="416.58,490.92 410.34,490.92 413.46,496.33 			"/>
			<polygon points="129.72,339.71 123.49,339.71 126.61,345.11 			"/>
			<polygon points="270.03,334.31 263.8,334.31 266.92,339.71 			"/>
			<polygon points="410.34,328.91 404.1,328.91 407.23,334.31 			"/>
			<polygon points="407.22,247.9 400.99,247.9 404.11,253.3 			"/>
			<polygon points="266.91,253.3 260.68,253.3 263.8,258.7 			"/>
			<polygon points="126.6,258.7 120.37,258.7 123.49,264.1 			"/>
			<polygon points="195.2,215.5 188.96,215.5 192.08,220.9 			"/>
			<polygon points="329.27,210.1 332.39,215.5 335.51,210.1 			"/>
			<polygon points="198.32,296.5 192.08,296.5 195.2,301.91 			"/>
			<polygon points="332.39,291.1 335.51,296.51 338.63,291.1 			"/>
			<polygon points="123.49,177.69 117.25,177.69 120.37,183.09 			"/>
			<polygon points="260.68,177.69 263.8,172.29 257.56,172.29 			"/>
			<polygon points="404.11,166.89 397.87,166.89 400.99,172.29 			"/>
			<polygon points="329.28,134.49 332.39,129.09 326.16,129.09 			"/>
			<polygon points="192.08,134.49 185.85,134.49 188.97,139.89 			"/>
			<polygon points="120.37,96.68 114.13,96.68 117.25,102.08 			"/>
			<polygon points="257.56,96.68 260.68,91.28 254.44,91.28 			"/>
			<polygon points="400.99,85.88 394.75,85.88 397.87,91.28 			"/>
			<polygon points="185.85,58.88 188.96,53.48 182.73,53.48 			"/>
			<polygon points="326.16,53.48 329.27,48.08 323.04,48.08 			"/>
			<polygon points="117.25,15.67 111.01,15.67 114.13,21.07 			"/>
			<polygon points="257.56,10.27 251.32,10.27 254.44,15.67 			"/>
			<polygon points="391.63,4.88 394.75,10.28 397.87,4.88 			"/>
		</g>
	</g>
	<g>
		<g>
			<path d="M211.65,210.2v20.65h-10.02h-20.19v89.85H159.8v-89.85h-19.65h-10.02V210.2H211.65z"/>
			<path d="M267.98,210.2l0.54,1.54l-10.79,27.82l-14.95,37.99h29.82l-7.17-17.95l10.79-27.82l34.44,88.92h-22.19l-8.17-22.65
				h-45.23l-9.25,22.65h-21.58l42.61-110.5H267.98z"/>
			<path d="M381.87,210.2v20.65h-10.02h-20.19v89.85h-21.65v-89.85h-19.65h-10.02V210.2H381.87z"/>
		</g>
		<circle cx="256" cy="362.66" r="9.46"/>
		<circle cx="256" cy="168.24" r="9.46"/>
	</g>
</g>
</svg>
