<?xml version="1.0" encoding="utf-8"?>
<!-- Generator: Adobe Adobe Illustrator 24.2.0, SVG Export Plug-In . SVG Version: 6.00 Build 0)  -->
<svg version="1.1" xmlns="http://www.w3.org/2000/svg" xmlns:xlink="http://www.w3.org/1999/xlink" x="0px" y="0px" width="273.9px"
	 height="273.9px" viewBox="0 0 273.9 273.9" style="enable-background:new 0 0 273.9 273.9;" xml:space="preserve">
<style type="text/css">
	.st0{stroke:#000000;stroke-width:2.7175;stroke-miterlimit:10;}
	.st1{fill:#CF1F12;stroke:#CF1F12;stroke-width:2.7175;stroke-miterlimit:10;}
	.st2{fill:none;stroke:#000000;stroke-width:9;stroke-linecap:round;stroke-miterlimit:10;}
	.st3{fill:none;stroke:#000000;stroke-width:9;stroke-linecap:round;stroke-linejoin:round;stroke-miterlimit:10;}
	.st4{stroke:#000000;stroke-width:2;stroke-linecap:round;stroke-linejoin:round;stroke-miterlimit:10;}
</style>
<g id="Calque_1">
</g>
<g id="Calque_2">
</g>
<g id="Calque_3">
	<g>
		<g>
			<g>
				<g>
					<path class="st0" d="M113.23,174.36c1.47,1.47,1.47,3.86,0,5.33c-1.47,1.47-3.86,1.47-5.33,0c-1.47-1.47-1.47-3.86,0-5.33
						C109.36,172.88,111.76,172.88,113.23,174.36z"/>
					<path class="st0" d="M164.41,174.36c1.47,1.47,1.47,3.86,0,5.33c-1.47,1.47-3.86,1.47-5.33,0c-1.47-1.47-1.47-3.86,0-5.33
						C160.55,172.88,162.94,172.88,164.41,174.36z"/>
					<path class="st0" d="M139.61,148.77c1.47,1.47,1.47,3.86,0,5.33c-1.47,1.47-3.86,1.48-5.33,0.01c-1.47-1.47-1.47-3.86,0-5.34
						C135.76,147.3,138.14,147.3,139.61,148.77z"/>
					<path class="st1" d="M139.62,64.55c1.47,1.47,1.47,3.86,0,5.33c-1.48,1.47-3.86,1.48-5.33,0c-1.47-1.47-1.47-3.86,0-5.33
						C135.75,63.08,138.14,63.08,139.62,64.55z"/>
					<path class="st0" d="M139.62,19.31c1.47,1.47,1.47,3.86,0,5.33c-1.47,1.47-3.86,1.48-5.33,0c-1.47-1.47-1.47-3.86,0-5.33
						C135.76,17.84,138.14,17.83,139.62,19.31z"/>
				</g>
				<g>
					<path class="st0" d="M181.63,86.55c0,1.94,1.58,3.52,3.52,3.52c1.94,0,3.51-1.58,3.51-3.52c0-1.94-1.58-3.52-3.52-3.52
						C183.21,83.03,181.63,84.61,181.63,86.55z"/>
					<path class="st0" d="M163.48,86.55c0,1.94,1.58,3.52,3.52,3.52c1.94,0,3.51-1.58,3.51-3.52c0-1.94-1.58-3.52-3.52-3.52
						C165.05,83.03,163.48,84.61,163.48,86.55z"/>
					<path class="st0" d="M172.56,77.47c0,1.94,1.57,3.52,3.52,3.52c1.94,0,3.51-1.58,3.52-3.52c0-1.94-1.58-3.52-3.52-3.52
						C174.13,73.95,172.56,75.53,172.56,77.47z"/>
					<path class="st0" d="M172.56,95.63c0,1.94,1.57,3.52,3.52,3.52c1.94,0,3.51-1.58,3.51-3.52c0-1.94-1.57-3.52-3.52-3.52
						C174.13,92.11,172.56,93.69,172.56,95.63z"/>
				</g>
				<g>
					<path class="st0" d="M103.59,86.55c0,1.94,1.58,3.52,3.52,3.52c1.94,0,3.51-1.58,3.52-3.52c0-1.94-1.58-3.52-3.52-3.52
						C105.16,83.03,103.59,84.61,103.59,86.55z"/>
					<path class="st0" d="M85.43,86.55c0,1.94,1.58,3.52,3.52,3.52c1.94,0,3.52-1.58,3.52-3.52c0-1.94-1.58-3.52-3.52-3.52
						C87.01,83.03,85.43,84.61,85.43,86.55z"/>
					<path class="st0" d="M94.51,77.47c0,1.94,1.57,3.52,3.52,3.52c1.94,0,3.51-1.58,3.51-3.52c0-1.94-1.57-3.52-3.52-3.52
						C96.08,73.95,94.51,75.53,94.51,77.47z"/>
					<path class="st0" d="M94.51,95.63c0,1.94,1.57,3.52,3.52,3.52c1.94,0,3.51-1.58,3.51-3.52c0-1.95-1.57-3.52-3.52-3.52
						C96.08,92.11,94.51,93.69,94.51,95.63z"/>
				</g>
				<g>
					<path class="st0" d="M144.24,29.8c-1.94,0-3.52,1.58-3.52,3.52c0,1.95,1.58,3.52,3.52,3.52c1.94,0,3.52-1.58,3.52-3.52
						C147.75,31.38,146.18,29.8,144.24,29.8z"/>
				</g>
				<g>
					<path class="st0" d="M129.66,29.8c1.94,0,3.52,1.58,3.52,3.52c0,1.95-1.57,3.52-3.52,3.52c-1.94,0.01-3.52-1.57-3.52-3.52
						C126.14,31.38,127.72,29.8,129.66,29.8z"/>
				</g>
			</g>
			<g>
				<line class="st2" x1="111.36" y1="151.7" x2="136.95" y2="177.29"/>
				<line class="st2" x1="136.95" y1="177.29" x2="162.54" y2="151.7"/>
				<line class="st2" x1="85.77" y1="177.29" x2="136.95" y2="126.11"/>
				<line class="st2" x1="136.95" y1="126.11" x2="188.14" y2="177.29"/>
				<line class="st2" x1="73.97" y1="165.49" x2="136.95" y2="102.52"/>
				<line class="st2" x1="136.95" y1="102.52" x2="199.93" y2="165.49"/>
				<line class="st2" x1="113.36" y1="102.52" x2="125.16" y2="114.31"/>
				<line class="st2" x1="160.54" y1="102.52" x2="148.75" y2="114.31"/>
				<line class="st2" x1="186.13" y1="128.11" x2="174.34" y2="139.9"/>
				<line class="st2" x1="87.77" y1="128.11" x2="99.57" y2="139.9"/>
				<line class="st2" x1="100.19" y1="115.47" x2="111.99" y2="127.27"/>
				<line class="st2" x1="74.6" y1="141.07" x2="86.4" y2="152.87"/>
				<line class="st2" x1="172.7" y1="114.88" x2="160.91" y2="126.67"/>
				<line class="st2" x1="198.3" y1="140.47" x2="186.5" y2="152.27"/>
				<line class="st2" x1="218.79" y1="146.64" x2="199.93" y2="165.49"/>
				<line class="st2" x1="73.97" y1="165.49" x2="55.11" y2="146.63"/>
				
					<rect x="122.39" y="52.65" transform="matrix(0.7071 -0.7071 0.7071 0.7071 -7.4169 116.5247)" class="st3" width="29.12" height="29.12"/>
				<line class="st2" x1="136.95" y1="102.52" x2="136.95" y2="87.81"/>
			</g>
		</g>
		<g>
			<g>
				<g>
					<path class="st4" d="M78.72,224.39c-5.53,0-10.02-4.2-10.02-9.99s4.49-10,10.02-10c3.55,0,7.02,1.75,8.77,4.62h-0.94
						c-1.93-2.53-4.67-3.91-7.83-3.91c-5.11,0-9.24,3.94-9.24,9.29s4.12,9.29,9.24,9.29c4.91,0,8.64-3.5,9.34-7.1H76.56v-0.7H89
						C88.46,220.56,84.12,224.39,78.72,224.39z"/>
					<path class="st4" d="M112.12,217.4v6.65h-0.78v-6.65l-6.45-12.66h0.86l5.98,11.77l5.95-11.77h0.88L112.12,217.4z"/>
					<path class="st4" d="M145.68,214.55c-1.28,0.94-2.58,1.15-4.83,1.15h-3.71v8.35h-0.78v-19.31h4.49c2.29,0,3.55,0.21,4.83,1.15
						c1.15,0.84,1.96,2.58,1.96,4.33C147.64,211.97,146.83,213.72,145.68,214.55z M145.26,206.52c-1.1-0.81-2.19-1.07-4.39-1.07
						h-3.73V215h3.73c2.17,0,3.29-0.26,4.39-1.07c0.94-0.68,1.59-2.22,1.59-3.68C146.85,208.73,146.2,207.19,145.26,206.52z"/>
					<path class="st4" d="M170.36,224.39c-2.32,0-5.32-1.56-5.58-5.22h0.78c0.47,3.71,3.29,4.51,4.77,4.51
						c2.43,0,4.85-1.83,4.85-4.59c0-3.55-3.08-4.3-4.93-4.77c-1.69-0.44-5.01-1.23-5.06-4.85c0-0.03,0-0.05,0-0.08
						c0-3.16,2.48-4.96,5.25-4.96c2.27,0,4.56,1.33,4.98,4.49h-0.78c-0.29-1.54-1.15-3.78-4.25-3.78c-2.45,0-4.41,1.67-4.41,4.2
						c-0.03,3.05,2.53,3.78,5.19,4.49c0.94,0.23,4.8,0.97,4.8,5.17C175.97,222.17,173.23,224.39,170.36,224.39z"/>
					<path class="st4" d="M200.4,217.4v6.65h-0.78v-6.65l-6.45-12.66h0.86l5.98,11.77l5.95-11.77h0.89L200.4,217.4z"/>
					<path class="st4" d="M58.06,236.76v18.6h-0.78v-18.6h-5.25v-0.7H63.3v0.7H58.06z"/>
					<path class="st4" d="M93.91,255.36l-2.89-6.73h-10.1l-2.89,6.73h-0.83l8.27-19.31h1.02l8.27,19.31H93.91z M85.95,236.79
						l-4.7,11.14h9.42L85.95,236.79z"/>
					<path class="st4" d="M114.63,236.76v18.6h-0.78v-18.6h-5.24v-0.7h11.27v0.7H114.63z"/>
					<path class="st4" d="M142.36,236.76v18.6h-0.78v-18.6h-5.25v-0.7h11.27v0.7H142.36z"/>
					<path class="st4" d="M173.99,255.7c-5.53,0-10.02-4.2-10.02-9.99c0-5.79,4.49-9.99,10.02-9.99c5.53,0,10.02,4.2,10.02,9.99
						C184.01,251.5,179.52,255.7,173.99,255.7z M173.99,236.42c-5.11,0-9.24,3.94-9.24,9.29s4.12,9.29,9.24,9.29
						c5.11,0,9.24-3.94,9.24-9.29S179.1,236.42,173.99,236.42z"/>
					<path class="st4" d="M211.85,255.7c-5.53,0-10.02-4.2-10.02-9.99c0-5.79,4.49-9.99,10.02-9.99c5.53,0,10.02,4.2,10.02,9.99
						C221.87,251.5,217.39,255.7,211.85,255.7z M211.85,236.42c-5.11,0-9.24,3.94-9.24,9.29s4.13,9.29,9.24,9.29
						c5.11,0,9.24-3.94,9.24-9.29S216.97,236.42,211.85,236.42z"/>
				</g>
			</g>
			<g>
				<g>
					<path class="st4" d="M78.72,224.39c-5.53,0-10.02-4.2-10.02-9.99s4.49-10,10.02-10c3.55,0,7.02,1.75,8.77,4.62h-0.94
						c-1.93-2.53-4.67-3.91-7.83-3.91c-5.11,0-9.24,3.94-9.24,9.29s4.12,9.29,9.24,9.29c4.91,0,8.64-3.5,9.34-7.1H76.56v-0.7H89
						C88.46,220.56,84.12,224.39,78.72,224.39z"/>
					<path class="st4" d="M112.12,217.4v6.65h-0.78v-6.65l-6.45-12.66h0.86l5.98,11.77l5.95-11.77h0.88L112.12,217.4z"/>
					<path class="st4" d="M145.68,214.55c-1.28,0.94-2.58,1.15-4.83,1.15h-3.71v8.35h-0.78v-19.31h4.49c2.29,0,3.55,0.21,4.83,1.15
						c1.15,0.84,1.96,2.58,1.96,4.33C147.64,211.97,146.83,213.72,145.68,214.55z M145.26,206.52c-1.1-0.81-2.19-1.07-4.39-1.07
						h-3.73V215h3.73c2.17,0,3.29-0.26,4.39-1.07c0.94-0.68,1.59-2.22,1.59-3.68C146.85,208.73,146.2,207.19,145.26,206.52z"/>
					<path class="st4" d="M170.36,224.39c-2.32,0-5.32-1.56-5.58-5.22h0.78c0.47,3.71,3.29,4.51,4.77,4.51
						c2.43,0,4.85-1.83,4.85-4.59c0-3.55-3.08-4.3-4.93-4.77c-1.69-0.44-5.01-1.23-5.06-4.85c0-0.03,0-0.05,0-0.08
						c0-3.16,2.48-4.96,5.25-4.96c2.27,0,4.56,1.33,4.98,4.49h-0.78c-0.29-1.54-1.15-3.78-4.25-3.78c-2.45,0-4.41,1.67-4.41,4.2
						c-0.03,3.05,2.53,3.78,5.19,4.49c0.94,0.23,4.8,0.97,4.8,5.17C175.97,222.17,173.23,224.39,170.36,224.39z"/>
					<path class="st4" d="M200.4,217.4v6.65h-0.78v-6.65l-6.45-12.66h0.86l5.98,11.77l5.95-11.77h0.89L200.4,217.4z"/>
					<path class="st4" d="M58.06,236.76v18.6h-0.78v-18.6h-5.25v-0.7H63.3v0.7H58.06z"/>
					<path class="st4" d="M93.91,255.36l-2.89-6.73h-10.1l-2.89,6.73h-0.83l8.27-19.31h1.02l8.27,19.31H93.91z M85.95,236.79
						l-4.7,11.14h9.42L85.95,236.79z"/>
					<path class="st4" d="M114.63,236.76v18.6h-0.78v-18.6h-5.24v-0.7h11.27v0.7H114.63z"/>
					<path class="st4" d="M142.36,236.76v18.6h-0.78v-18.6h-5.25v-0.7h11.27v0.7H142.36z"/>
					<path class="st4" d="M173.99,255.7c-5.53,0-10.02-4.2-10.02-9.99c0-5.79,4.49-9.99,10.02-9.99c5.53,0,10.02,4.2,10.02,9.99
						C184.01,251.5,179.52,255.7,173.99,255.7z M173.99,236.42c-5.11,0-9.24,3.94-9.24,9.29s4.12,9.29,9.24,9.29
						c5.11,0,9.24-3.94,9.24-9.29S179.1,236.42,173.99,236.42z"/>
					<path class="st4" d="M211.85,255.7c-5.53,0-10.02-4.2-10.02-9.99c0-5.79,4.49-9.99,10.02-9.99c5.53,0,10.02,4.2,10.02,9.99
						C221.87,251.5,217.39,255.7,211.85,255.7z M211.85,236.42c-5.11,0-9.24,3.94-9.24,9.29s4.13,9.29,9.24,9.29
						c5.11,0,9.24-3.94,9.24-9.29S216.97,236.42,211.85,236.42z"/>
				</g>
			</g>
		</g>
	</g>
</g>
</svg>
