<?xml version="1.0" encoding="utf-8"?>
<!-- Generator: Adobe Adobe Illustrator 24.2.0, SVG Export Plug-In . SVG Version: 6.00 Build 0)  -->
<svg version="1.1" id="Calque_1" xmlns="http://www.w3.org/2000/svg" xmlns:xlink="http://www.w3.org/1999/xlink" x="0px" y="0px"
	 width="512px" height="512px" viewBox="0 0 512 512" style="enable-background:new 0 0 512 512;" xml:space="preserve">
<style type="text/css">
	.st0{fill:none;stroke:#000000;stroke-width:8.3116;stroke-miterlimit:10;}
	.st1{stroke:#000000;stroke-width:4.1705;stroke-linecap:round;stroke-linejoin:round;stroke-miterlimit:10;}
	.st2{fill:#FFFFFF;}
	.st3{fill:none;stroke:#FFFFFF;stroke-width:0.6445;stroke-miterlimit:10;}
</style>
<g>
	<g>
		<path class="st0" d="M256,106.55c83.58,0,151.33,66.91,151.33,149.45"/>
		<path class="st0" d="M104.67,256c0-82.54,67.75-149.45,151.33-149.45"/>
	</g>
	<g>
		<path class="st1" d="M91.22,285.61L67.6,302.1l-0.15-0.87l3.87-2.7l-3.37-19.33l-4.55-1.23l-0.15-0.87l27.81,7.51L91.22,285.61z
			 M72.03,298.02l18.3-12.77l-21.54-5.81L72.03,298.02z"/>
		<path class="st1" d="M99.59,316.47l-0.75,0.25l-2.47-7.51l-24.05,7.9l-0.24-0.75l24.05-7.9l-2.47-7.51l0.75-0.25L99.59,316.47z"/>
		<path class="st1" d="M103.28,325.11l6.74,13.44l-0.71,0.35l-6.38-12.73l-10.61,5.32l4.96,9.9l-0.71,0.35l-4.96-9.9L81,337.16
			l6.38,12.73l-0.71,0.35l-6.74-13.44L103.28,325.11z"/>
		<path class="st1" d="M115.85,347.89l0.46,0.65l-20.69,14.59l8.2,11.64l-0.65,0.46l-8.66-12.29L115.85,347.89z"/>
		<path class="st1" d="M131.02,367.49l-19.51,17.35l-0.52-0.59l19.51-17.34L131.02,367.49z"/>
		<path class="st1" d="M139.88,376.86l11.25,9.97l-0.52,0.59l-10.66-9.45l-7.87,8.88l8.29,7.35l-0.52,0.59l-8.29-7.35l-7.87,8.88
			l10.66,9.45l-0.52,0.59l-11.25-9.97L139.88,376.86z"/>
		<path class="st1" d="M159.73,393.34l8.05,5.03c2.22,1.39,3.62,3.36,4.22,5.91c0.59,2.56,0.19,4.95-1.19,7.17
			c-1.38,2.22-3.36,3.62-5.91,4.22c-1.19,0.27-2.35,0.34-3.47,0.18l-0.32,9.12l-0.8-0.5l0.32-8.76c-0.99-0.24-1.95-0.66-2.88-1.24
			l-7.38-4.61l-3.77,6.04l-0.67-0.42L159.73,393.34z M159.98,394.43l-9.22,14.76l7.38,4.61c2.04,1.27,4.23,1.64,6.57,1.1
			c2.34-0.54,4.15-1.83,5.42-3.87c1.27-2.04,1.64-4.23,1.1-6.57c-0.54-2.34-1.83-4.15-3.87-5.42L159.98,394.43z"/>
		<path class="st1" d="M217.21,419.18l-0.22,0.76l-7.6-2.21l-7.07,24.31l-0.76-0.22l7.07-24.3l-7.6-2.21l0.22-0.76L217.21,419.18z"
			/>
		<path class="st1" d="M245.38,426.7c2.36,3,3.32,6.39,2.87,10.19c-0.45,3.81-2.18,6.9-5.18,9.26c-3,2.36-6.39,3.32-10.19,2.87
			c-3.81-0.45-6.9-2.18-9.27-5.17c-2.36-3-3.32-6.41-2.87-10.22c0.45-3.79,2.17-6.87,5.17-9.23c3-2.36,6.41-3.32,10.22-2.87
			C239.94,421.98,243.02,423.7,245.38,426.7z M236.06,422.31c-3.58-0.42-6.79,0.48-9.63,2.72c-2.83,2.23-4.46,5.13-4.89,8.69
			c-0.42,3.58,0.48,6.79,2.72,9.63c2.23,2.83,5.14,4.46,8.73,4.89c3.56,0.42,6.76-0.48,9.6-2.72c2.83-2.23,4.46-5.14,4.89-8.73
			c0.42-3.56-0.48-6.76-2.72-9.6C242.52,424.37,239.62,422.74,236.06,422.31z"/>
		<path class="st1" d="M260.75,439.51l-1.31-15.77l0.79-0.06l1.31,15.77c0.22,2.61,1.33,4.76,3.33,6.46c2,1.7,4.31,2.44,6.92,2.22
			c2.61-0.22,4.76-1.33,6.46-3.33c1.7-2,2.44-4.31,2.22-6.91l-1.31-15.77l0.79-0.07l1.31,15.77c0.24,2.84-0.56,5.34-2.39,7.5
			c-1.83,2.16-4.17,3.36-7,3.6c-2.84,0.23-5.34-0.56-7.5-2.39C262.18,444.68,260.98,442.35,260.75,439.51z"/>
		<path class="st1" d="M291.13,419.98l9.16-2.48c2.52-0.69,4.92-0.37,7.2,0.93c2.28,1.31,3.76,3.22,4.44,5.75
			c0.68,2.53,0.37,4.93-0.93,7.2c-0.61,1.06-1.35,1.95-2.23,2.67l6.47,6.44l-0.92,0.25l-6.2-6.19c-0.85,0.56-1.81,0.98-2.87,1.27
			l-8.4,2.28l1.86,6.87l-0.76,0.21L291.13,419.98z M292.1,420.53l4.55,16.8l8.4-2.28c2.32-0.63,4.08-1.99,5.27-4.07
			c1.19-2.08,1.48-4.29,0.85-6.61c-0.63-2.32-1.99-4.08-4.07-5.27c-2.08-1.2-4.29-1.48-6.61-0.85L292.1,420.53z"/>
		<path class="st1" d="M346.19,397.06l24.31,15.46l-0.75,0.48l-3.98-2.53l-16.54,10.55l0.62,4.67l-0.75,0.48l-3.77-28.56
			L346.19,397.06z M365.03,410l-18.82-11.97l2.92,22.12L365.03,410z"/>
		<path class="st1" d="M386.66,360.86l0.59,0.52l-5.24,5.93l18.96,16.78l-0.52,0.59l-18.96-16.78l-5.24,5.92l-0.59-0.52
			L386.66,360.86z"/>
		<path class="st1" d="M405.55,338.61c3.72-0.85,7.2-0.25,10.43,1.78c3.25,2.05,5.3,4.93,6.14,8.65c0.85,3.72,0.25,7.2-1.78,10.43
			c-2.05,3.25-4.93,5.3-8.65,6.14c-3.72,0.85-7.21,0.25-10.46-1.8c-3.23-2.03-5.27-4.91-6.12-8.63c-0.85-3.72-0.25-7.21,1.8-10.46
			C398.95,341.5,401.83,339.46,405.55,338.61z M397.58,345.15c-1.92,3.05-2.48,6.34-1.68,9.86c0.8,3.52,2.72,6.24,5.75,8.15
			c3.05,1.92,6.34,2.48,9.86,1.68c3.52-0.8,6.24-2.73,8.16-5.78c1.91-3.04,2.46-6.31,1.67-9.83c-0.8-3.52-2.73-6.24-5.78-8.16
			c-3.04-1.91-6.31-2.46-9.83-1.66C402.21,340.2,399.49,342.12,397.58,345.15z"/>
		<path class="st1" d="M423.74,330.22l-14.81-5.58l0.28-0.74l14.8,5.58c2.45,0.92,4.87,0.84,7.26-0.24c2.39-1.08,4.05-2.85,4.97-5.3
			c0.92-2.45,0.84-4.87-0.24-7.26c-1.08-2.39-2.85-4.05-5.3-4.97l-14.81-5.58l0.28-0.74l14.81,5.58c2.67,1,4.58,2.8,5.75,5.38
			c1.17,2.58,1.25,5.21,0.25,7.87c-1,2.67-2.8,4.58-5.38,5.75C429.03,331.14,426.4,331.23,423.74,330.22z"/>
		<path class="st1" d="M419.09,294.4l1.66-9.35c0.46-2.57,1.76-4.62,3.91-6.12c2.15-1.5,4.52-2.03,7.09-1.57
			c2.57,0.46,4.62,1.76,6.12,3.91c0.7,1,1.19,2.05,1.47,3.15l8.58-3.11l-0.17,0.94l-8.24,2.97c0.14,1.01,0.12,2.06-0.07,3.14
			l-1.52,8.57l7.01,1.24l-0.14,0.78L419.09,294.4z M420.01,293.76l17.14,3.04l1.52-8.57c0.42-2.37-0.06-4.54-1.44-6.5
			s-3.25-3.16-5.62-3.58c-2.37-0.42-4.54,0.06-6.5,1.43s-3.16,3.25-3.58,5.62L420.01,293.76z"/>
	</g>
	<g>
		<g>
			<g>
				<path d="M256,93.18c91.06,0,164.87,72.9,164.87,162.82h31.86c0-108.55-88.08-196.55-196.73-196.55S59.27,147.45,59.27,256h31.86
					C91.13,166.08,164.94,93.18,256,93.18z"/>
			</g>
		</g>
		<g>
			<g>
				<g>
					<path class="st2" d="M251.31,74.53l6.25-10.83l-2.44-4.23c-2.07,0.01-4.13,0.06-6.18,0.13l2.37,4.1l-9.38,16.25h18.77
						l11.45-19.83c-2-0.16-4-0.3-6.02-0.41l-8.56,14.82H251.31z"/>
					<path class="st2" d="M229.42,69.11l4.89-8.46c-2.26,0.25-4.51,0.53-6.75,0.86l-1.26,2.19h-11.08c-2.28,0.48-4.54,1-6.79,1.56
						l2.23,3.86H229.42z"/>
					<path class="st2" d="M87.12,256h4.01c0-1.27,0.02-2.54,0.05-3.8l-2.5-4.32h2.65c0.09-1.81,0.22-3.62,0.37-5.42l-12.4,0
						L87.12,256z"/>
					<path class="st2" d="M414.18,139.13c-1.17-1.57-2.35-3.13-3.56-4.67l-9.18,15.91l-6.25,0l6.25-10.83l-9.38-16.25h-12.51
						l3.13-5.42h12.51l9.38,16.25l2.39-4.15c-5.17-6.17-10.71-12.03-16.6-17.52h-10.82l-6.25,10.84l-3.13-5.42l6.26-10.83h7.92
						c-2.15-1.85-4.34-3.66-6.57-5.42h-4.48l-9.38,16.25l6.26,10.83h-6.26l-6.25-10.83l9.38-16.25l-18.76,0l-8.24,14.27
						c1.56,0.91,3.11,1.85,4.63,2.81l6.74-11.67h6.26l-3.13,5.42l-3.13,5.42l5.32,9.22c2.95,2.25,5.81,4.59,8.59,7.03h7.97
						l-2.75,4.77c1.35,1.29,2.68,2.6,3.98,3.93l5.02-8.7l3.13,5.42l-4.26,7.39c1.29,1.41,2.54,2.84,3.78,4.29l6.74-11.67
						l-6.25-10.83h6.25l6.26,10.83l-9.32,16.14c0.03,0.04,0.06,0.08,0.09,0.12h18.61L414.18,139.13z"/>
					<path class="st2" d="M196.76,104.02c8.84-3.36,18.04-5.99,27.53-7.82h-4.25l-17.04-29.52c-1.79,0.5-3.58,1.02-5.35,1.57
						l9.88,17.12L196.76,104.02z M213.78,96.2h-6.26l3.13-5.42L213.78,96.2z"/>
					<path class="st2" d="M370.55,96.2c-2.61-1.87-5.26-3.68-7.96-5.42h-1.81l-1.04-1.8c-4.09-2.54-8.27-4.93-12.55-7.17
						l-16.69,28.9c1.62,0.81,3.22,1.65,4.81,2.51l9.83-17.03H370.55z M351.39,85.36l3.13,5.42h-6.26L351.39,85.36z"/>
					<path class="st2" d="M88.68,172.04l-3.13-5.42h12.51l9.38-16.25l-6.25-10.83h6.25l6.26,10.83l-9.38,16.25h13.86
						c6.54-9.82,14.14-18.9,22.62-27.09h-2.08l3.13-5.42l1.66,2.87c1.36-1.25,2.73-2.48,4.13-3.69l-15.16-26.26l3.13-5.42
						l6.25,10.83h18.77l6.26-10.83l3.13,5.42l-6.25,10.83l-18.76,0l6.88,11.91c1.42-1.14,2.86-2.26,4.32-3.36l-1.81-3.14h6.11
						c3.32-2.34,6.74-4.56,10.24-6.65l5.54-9.6l-6.25-10.83h6.25l6.26,10.83l-2.59,4.49c2.84-1.46,5.72-2.84,8.65-4.14l0.2-0.35
						l-9.38-16.25l-12.51,0l3.13-5.42h12.51l9.38,16.25l9.38-16.25l-8.89-15.4c-1.74,0.59-3.47,1.22-5.18,1.86l1.56,2.71l6.26,10.83
						l-3.13,5.42l-6.25-10.84h-17.16c-0.75,0.37-1.51,0.74-2.26,1.13l-5.6,9.71l-2.92-5.06c-1.57,0.9-3.11,1.83-4.65,2.78l4.44,7.7
						h-6.26l-2.77-4.79c-1.52,0.99-3.02,2-4.5,3.03l4.14,7.18h12.51l-3.13,5.42l-12.51,0l-5.45-9.43
						c-4.42,3.25-8.7,6.68-12.83,10.28l12.02,20.82l-18.77,32.5l-6.25,0l6.25-10.83l-9.38-16.25h-8.91
						c-5.44,6.86-10.42,14.1-14.92,21.67h5.06l6.26-10.83l3.13,5.42l-6.25,10.83l-11.3,0c-1.23,2.23-2.42,4.48-3.56,6.76l5.48,9.49
						h25.02l0.5,0.86c1.17-2.12,2.39-4.21,3.65-6.28L88.68,172.04z"/>
					<path class="st2" d="M182.51,74.53l-0.41-0.72c-0.59,0.24-1.18,0.47-1.76,0.72H182.51z"/>
					<path class="st2" d="M123.08,144.95l9.38-16.25l-9.89-17.12c-1.37,1.26-2.71,2.54-4.04,3.84l1.42,2.45l6.26,10.83l-3.13,5.42
						l-6.25-10.83h-5.92c-1.63,1.78-3.22,3.58-4.78,5.42h7.58L123.08,144.95z"/>
					<path class="st2" d="M271.41,93.89c3.57,0.33,7.1,0.76,10.6,1.31l-5.68-9.84L271.41,93.89z"/>
					<path class="st2" d="M335.75,79.95l-3.13,5.42l-6.25-10.84h-18.77l-6.25,10.84l-3.13-5.42l6.26-10.83h12.56
						c-5.31-1.73-10.71-3.25-16.2-4.53l-8.87,15.36l6.26,10.83h-6.26l-6.25-10.83l9.38-16.25l-18.76,0l-12.51,21.67h-37.53
						l-3.13-5.42h12.51l9.38-16.25l-2.19-3.8c-2,0.13-3.99,0.29-5.98,0.48l1.91,3.32l-6.25,10.83l-18.76,0l9.38,16.25h25.02
						l1.46,2.53c2.05-0.08,4.11-0.13,6.18-0.13l-1.38-2.4h6.26l-1.41,2.44c2.05,0.04,4.09,0.12,6.12,0.23l14.05-24.33h6.26
						l-3.13,5.42l-3.13,5.42l9.38,16.25h12.51l-1.61,2.78c1.8,0.49,3.59,1,5.37,1.54l2.5-4.32l3.13,5.42l-0.37,0.63
						c1.74,0.6,3.46,1.22,5.17,1.88l1.45-2.51l-6.25-10.83h6.25l6.26,10.83l-2.63,4.55c1.68,0.71,3.34,1.44,4.98,2.2l3.9-6.75
						l-9.38-16.25h-12.51l3.13-5.42h12.51l9.38,16.25l9.38-16.25l-0.61-1.06c-2.79-1.34-5.61-2.62-8.47-3.84L335.75,79.95z"/>
					<path class="st2" d="M433.91,172.04c-2.91-6.15-6.12-12.13-9.64-17.9l-0.95,1.65l9.38,16.25H433.91z"/>
					<path class="st2" d="M59.28,255.46c0,0.18-0.01,0.36-0.01,0.54h5.95l1.56-2.71l-6.97-12.07c-0.25,3.31-0.41,6.63-0.49,9.98
						l1.2,2.08L59.28,255.46z"/>
					<path class="st2" d="M438.96,237.04l6.26,10.83h-6.26l-6.25-10.83l9.38-16.25h-18.76l-4.72,8.18c0.49,2.88,0.9,5.78,1.23,8.7
						l6.62-11.47h6.26l-3.13,5.42l-3.13,5.42l9.38,16.25l12.51,0l-1.56,2.71h5.95c0-6.57-0.33-13.07-0.96-19.48l-3.43,5.93
						l-3.13-5.42l5.46-9.45c-0.33-2.28-0.69-4.55-1.1-6.8h-1.23L438.96,237.04z"/>
					<path class="st2" d="M105.27,189.94c0.9-2,1.84-3.98,2.82-5.94l-0.65-1.13l-25.02,0l-5.2-9c-0.94,2.03-1.84,4.07-2.71,6.14
						l1.65,2.86h-2.82c-0.72,1.79-1.42,3.6-2.09,5.42h33.06L105.27,189.94z"/>
					<path class="st2" d="M435.84,209.96l-18.77-32.5l3.13-5.42l6.25,10.83h12.2c-0.73-1.82-1.49-3.62-2.27-5.42h-6.8l-9.38-16.25
						l-9.38,16.25l12.51,21.67l-8.19,14.18c0.69,2.5,1.31,5.03,1.88,7.58l3.18-5.51h28.31c-0.38-1.82-0.79-3.62-1.22-5.42H435.84z
						 M423.33,209.96l3.13-5.42l3.13,5.42H423.33z"/>
					<path class="st2" d="M404.56,177.45l16.45-28.49c-1.1-1.69-2.22-3.35-3.37-5l-9.96,17.24h-17.63
						c8.11,11.17,14.83,23.4,19.9,36.43l0.86,1.49l-0.17,0.3c0.84,2.23,1.62,4.48,2.36,6.75l4.07-7.05L404.56,177.45z
						 M401.43,172.04l-3.13-5.42h6.26L401.43,172.04z"/>
					<path class="st2" d="M442.09,199.12l-3.13-5.42h3.67c-0.61-1.82-1.23-3.62-1.89-5.42l-11.16,0l9.38,16.25h6.94
						c-0.49-1.82-1.01-3.62-1.55-5.42H442.09z"/>
					<path class="st2" d="M73.04,199.12h6.26l-3.13,5.42l-3.13,5.42l9.38,16.25l11.46,0c0.98-5.22,2.2-10.36,3.67-15.39l-2.63,4.56
						l-3.13-5.42l6.26-10.83h3.41c0.69-1.82,1.41-3.63,2.16-5.42l-8.7,0l-9.38,16.25l6.26,10.83h-6.26l-6.25-10.83l9.38-16.25H69.91
						l-1.26,2.17c-2.09,6.52-3.86,13.18-5.27,19.97L73.04,199.12z"/>
					<path class="st2" d="M420.63,247.12c0.16,2.94,0.25,5.9,0.25,8.88h0.88l1.56-2.71l1.56,2.71h6.26l-7.82-13.54L420.63,247.12z"
						/>
					<path class="st2" d="M71.48,256h9.38l-14.07-24.38l3.13-5.42l6.25,10.83h16.08c0.32-2.76,0.72-5.5,1.18-8.22l-1.62,2.8H79.3
						l-9.38-16.25l-9.08,15.73c-0.04,0.29-0.06,0.59-0.1,0.88l12.31,21.32L71.48,256z"/>
				</g>
			</g>
		</g>
		<g>
			<g>
				<path class="st3" d="M256,93.18c91.06,0,164.87,72.9,164.87,162.82h31.86c0-108.55-88.08-196.55-196.73-196.55
					S59.27,147.45,59.27,256h31.86C91.13,166.08,164.94,93.18,256,93.18z"/>
			</g>
		</g>
	</g>
	<g>
		<g>
			<path d="M211.1,210.06v20.71h-10.05H180.8v90.12h-21.72v-90.12h-19.71h-10.05v-20.71H211.1z"/>
			<path d="M267.6,210.06l0.54,1.55l-10.82,27.9l-14.99,38.1h29.91l-7.19-18.01l10.82-27.9l34.55,89.19h-22.26l-8.19-22.72h-45.37
				l-9.27,22.72h-21.64l42.74-110.83H267.6z"/>
			<path d="M381.83,210.06v20.71h-10.05h-20.25v90.12h-21.72v-90.12h-19.71h-10.05v-20.71H381.83z"/>
		</g>
		<circle cx="255.58" cy="362.98" r="9.49"/>
		<circle cx="255.58" cy="167.97" r="9.49"/>
	</g>
</g>
</svg>
